<svg width="20" height="20" viewBox="0 0 20 20" fill="none" xmlns="http://www.w3.org/2000/svg">
<path d="M3.85 14.6749C4.7 14.0791 5.65 13.6093 6.7 13.2655C7.75 12.9218 8.85 12.7499 10 12.7499C11.15 12.7499 12.25 12.9218 13.3 13.2655C14.35 13.6093 15.3 14.0791 16.15 14.6749C16.7333 14.0485 17.1875 13.3381 17.5125 12.5437C17.8375 11.7492 18 10.9013 18 9.99992C18 7.96797 17.2208 6.23777 15.6625 4.80929C14.1042 3.38082 12.2167 2.66659 10 2.66659C7.78333 2.66659 5.89583 3.38082 4.3375 4.80929C2.77917 6.23777 2 7.96797 2 9.99992C2 10.9013 2.1625 11.7492 2.4875 12.5437C2.8125 13.3381 3.26667 14.0485 3.85 14.6749ZM10 10.9166C9.01667 10.9166 8.1875 10.6072 7.5125 9.98846C6.8375 9.36971 6.5 8.60964 6.5 7.70825C6.5 6.80686 6.8375 6.04679 7.5125 5.42804C8.1875 4.80929 9.01667 4.49992 10 4.49992C10.9833 4.49992 11.8125 4.80929 12.4875 5.42804C13.1625 6.04679 13.5 6.80686 13.5 7.70825C13.5 8.60964 13.1625 9.36971 12.4875 9.98846C11.8125 10.6072 10.9833 10.9166 10 10.9166ZM10 19.1666C8.61667 19.1666 7.31667 18.926 6.1 18.4447C4.88333 17.9635 3.825 17.3103 2.925 16.4853C2.025 15.6603 1.3125 14.6902 0.7875 13.5749C0.2625 12.4596 0 11.268 0 9.99992C0 8.73186 0.2625 7.5402 0.7875 6.42492C1.3125 5.30964 2.025 4.3395 2.925 3.5145C3.825 2.6895 4.88333 2.03638 6.1 1.55513C7.31667 1.07388 8.61667 0.833252 10 0.833252C11.3833 0.833252 12.6833 1.07388 13.9 1.55513C15.1167 2.03638 16.175 2.6895 17.075 3.5145C17.975 4.3395 18.6875 5.30964 19.2125 6.42492C19.7375 7.5402 20 8.73186 20 9.99992C20 11.268 19.7375 12.4596 19.2125 13.5749C18.6875 14.6902 17.975 15.6603 17.075 16.4853C16.175 17.3103 15.1167 17.9635 13.9 18.4447C12.6833 18.926 11.3833 19.1666 10 19.1666ZM10 17.3333C10.8833 17.3333 11.7167 17.2148 12.5 16.978C13.2833 16.7412 14 16.4013 14.65 15.9583C14 15.5152 13.2833 15.1753 12.5 14.9385C11.7167 14.7017 10.8833 14.5833 10 14.5833C9.11667 14.5833 8.28333 14.7017 7.5 14.9385C6.71667 15.1753 6 15.5152 5.35 15.9583C6 16.4013 6.71667 16.7412 7.5 16.978C8.28333 17.2148 9.11667 17.3333 10 17.3333ZM10 9.08325C10.4333 9.08325 10.7917 8.95339 11.075 8.69367C11.3583 8.43395 11.5 8.10547 11.5 7.70825C11.5 7.31103 11.3583 6.98256 11.075 6.72284C10.7917 6.46311 10.4333 6.33325 10 6.33325C9.56667 6.33325 9.20833 6.46311 8.925 6.72284C8.64167 6.98256 8.5 7.31103 8.5 7.70825C8.5 8.10547 8.64167 8.43395 8.925 8.69367C9.20833 8.95339 9.56667 9.08325 10 9.08325Z" fill="#362D63"/>
</svg>
