<svg width="20" height="20" viewBox="0 0 20 20" fill="none" xmlns="http://www.w3.org/2000/svg">
<circle cx="10" cy="10" r="10" fill="#362D63"/>
<path d="M5.5 14.5C5.225 14.5 4.98958 14.4021 4.79375 14.2063C4.59792 14.0104 4.5 13.775 4.5 13.5V7.5C4.5 7.225 4.59792 6.98958 4.79375 6.79375C4.98958 6.59792 5.225 6.5 5.5 6.5H7.075L8 5.5H11V6.5H8.4375L7.525 7.5H5.5V13.5H13.5V9H14.5V13.5C14.5 13.775 14.4021 14.0104 14.2063 14.2063C14.0104 14.4021 13.775 14.5 13.5 14.5H5.5ZM13.5 7.5V6.5H12.5V5.5H13.5V4.5H14.5V5.5H15.5V6.5H14.5V7.5H13.5ZM9.5 12.75C10.125 12.75 10.6562 12.5312 11.0938 12.0938C11.5312 11.6562 11.75 11.125 11.75 10.5C11.75 9.875 11.5312 9.34375 11.0938 8.90625C10.6562 8.46875 10.125 8.25 9.5 8.25C8.875 8.25 8.34375 8.46875 7.90625 8.90625C7.46875 9.34375 7.25 9.875 7.25 10.5C7.25 11.125 7.46875 11.6562 7.90625 12.0938C8.34375 12.5312 8.875 12.75 9.5 12.75ZM9.5 11.75C9.15 11.75 8.85417 11.6292 8.6125 11.3875C8.37083 11.1458 8.25 10.85 8.25 10.5C8.25 10.15 8.37083 9.85417 8.6125 9.6125C8.85417 9.37083 9.15 9.25 9.5 9.25C9.85 9.25 10.1458 9.37083 10.3875 9.6125C10.6292 9.85417 10.75 10.15 10.75 10.5C10.75 10.85 10.6292 11.1458 10.3875 11.3875C10.1458 11.6292 9.85 11.75 9.5 11.75Z" fill="white"/>
</svg>
