<svg width="120" height="120" viewBox="0 0 120 120" fill="none" xmlns="http://www.w3.org/2000/svg">
<path d="M76.72 5H43.28C22.1385 5 5 22.1385 5 43.28V76.72C5 97.8615 22.1385 115 43.28 115H76.72C97.8615 115 115 97.8615 115 76.72V43.28C115 22.1385 97.8615 5 76.72 5Z" fill="#F8DE40"/>
<path d="M115 69.69C108.201 79.8715 98.9653 88.192 88.1321 93.895C77.2988 99.5981 65.2117 102.503 52.97 102.345C25.26 102.345 20.155 97.345 7.26001 89.7C9.93362 97.1093 14.8267 103.514 21.2724 108.041C27.7182 112.569 35.4031 114.999 43.28 115H76.72C86.8725 115 96.6092 110.967 103.788 103.788C110.967 96.6092 115 86.8725 115 76.72V69.69Z" fill="#E7C930"/>
<path d="M91.45 45.42H70.95C70.1945 45.3888 69.4803 45.0667 68.9568 44.5211C68.4333 43.9755 68.141 43.2486 68.141 42.4925C68.141 41.7364 68.4333 41.0095 68.9568 40.4639C69.4803 39.9183 70.1945 39.5962 70.95 39.565H91.45C92.2055 39.5962 92.9196 39.9183 93.4431 40.4639C93.9667 41.0095 94.259 41.7364 94.259 42.4925C94.259 43.2486 93.9667 43.9755 93.4431 44.5211C92.9196 45.0667 92.2055 45.3888 91.45 45.42Z" fill="#864E20"/>
<path d="M49.03 45.42H28.55C27.7945 45.3888 27.0804 45.0667 26.5569 44.5211C26.0333 43.9755 25.741 43.2486 25.741 42.4925C25.741 41.7364 26.0333 41.0095 26.5569 40.4639C27.0804 39.9183 27.7945 39.5962 28.55 39.565H49.05C49.8055 39.5962 50.5197 39.9183 51.0432 40.4639C51.5667 41.0095 51.859 41.7364 51.859 42.4925C51.859 43.2486 51.5667 43.9755 51.0432 44.5211C50.5197 45.0667 49.8055 45.3888 49.05 45.42H49.03Z" fill="#864E20"/>
<path d="M38.79 51.025C41.0519 51.025 43.2213 50.1272 44.8216 48.5287C46.422 46.9302 47.3224 44.7619 47.325 42.5H30.255C30.2577 44.7619 31.158 46.9302 32.7584 48.5287C34.3587 50.1272 36.5281 51.025 38.79 51.025Z" fill="#864E20"/>
<path d="M81.21 51.025C83.4719 51.025 85.6413 50.1272 87.2416 48.5287C88.8419 46.9302 89.7423 44.7619 89.745 42.5H72.675C72.6776 44.7619 73.578 46.9302 75.1784 48.5287C76.7787 50.1272 78.9481 51.025 81.21 51.025Z" fill="#864E20"/>
<path d="M36.5 76.765C36.5 76.765 55.25 66.14 69.625 65.205C84 64.27 89.155 66.3 82.905 67.705C76.655 69.11 68.375 66.925 55.485 71.375C42.595 75.825 32.845 79.425 36.5 76.765Z" fill="#864E20"/>
<path d="M67.925 73.07C61.005 72.62 50.555 79.855 50.555 79.855C48.42 81.75 53.555 79.595 60.325 76.995C67.095 74.395 70.655 76.92 73.825 76.29C76.995 75.66 74.85 73.5 67.925 73.07Z" fill="#E7C930"/>
</svg>
