<svg width="61" height="60" viewBox="0 0 61 60" fill="none" xmlns="http://www.w3.org/2000/svg">
<path d="M38.86 2.5H22.14C11.5693 2.5 3 11.0693 3 21.64V38.36C3 48.9307 11.5693 57.5 22.14 57.5H38.86C49.4307 57.5 58 48.9307 58 38.36V21.64C58 11.0693 49.4307 2.5 38.86 2.5Z" fill="#DDDDDD"/>
<path d="M58 34.845C54.6006 39.9357 49.9827 44.096 44.566 46.9475C39.1494 49.799 33.1059 51.2514 26.985 51.1725C13.13 51.1725 10.5775 48.6725 4.13 44.85C5.46681 48.5546 7.91335 51.757 11.1362 54.0207C14.3591 56.2844 18.2016 57.4993 22.14 57.5H38.86C43.9362 57.5 48.8046 55.4834 52.394 51.894C55.9835 48.3046 58 43.4362 58 38.36V34.845Z" fill="#CDCAB9"/>
<path d="M46.225 22.71H35.975C35.5972 22.6944 35.2402 22.5333 34.9784 22.2605C34.7167 21.9877 34.5705 21.6243 34.5705 21.2462C34.5705 20.8682 34.7167 20.5047 34.9784 20.2319C35.2402 19.9591 35.5972 19.7981 35.975 19.7825H46.225C46.6027 19.7981 46.9598 19.9591 47.2216 20.2319C47.4833 20.5047 47.6295 20.8682 47.6295 21.2462C47.6295 21.6243 47.4833 21.9877 47.2216 22.2605C46.9598 22.5333 46.6027 22.6944 46.225 22.71Z" fill="black"/>
<path d="M25.015 22.71H14.775C14.3972 22.6944 14.0402 22.5333 13.7784 22.2605C13.5166 21.9877 13.3705 21.6243 13.3705 21.2462C13.3705 20.8682 13.5166 20.5047 13.7784 20.2319C14.0402 19.9591 14.3972 19.7981 14.775 19.7825H25.025C25.4027 19.7981 25.7598 19.9591 26.0216 20.2319C26.2833 20.5047 26.4295 20.8682 26.4295 21.2462C26.4295 21.6243 26.2833 21.9877 26.0216 22.2605C25.7598 22.5333 25.4027 22.6944 25.025 22.71H25.015Z" fill="black"/>
<path d="M19.895 25.5125C21.0259 25.5125 22.1106 25.0636 22.9108 24.2643C23.711 23.4651 24.1612 22.3809 24.1625 21.25H15.6275C15.6288 22.3809 16.079 23.4651 16.8792 24.2643C17.6794 25.0636 18.7641 25.5125 19.895 25.5125Z" fill="black"/>
<path d="M41.105 25.5125C42.236 25.5125 43.3207 25.0636 44.1208 24.2643C44.921 23.4651 45.3712 22.3809 45.3725 21.25H36.8375C36.8388 22.3809 37.289 23.4651 38.0892 24.2643C38.8894 25.0636 39.9741 25.5125 41.105 25.5125Z" fill="black"/>
<path d="M18.75 38.3825C18.75 38.3825 28.125 33.07 35.3125 32.6025C42.5 32.135 45.0775 33.15 41.9525 33.8525C38.8275 34.555 34.6875 33.4625 28.2425 35.6875C21.7975 37.9125 16.9225 39.7125 18.75 38.3825Z" fill="black"/>
<path d="M34.4625 36.535C31.0025 36.31 25.7775 39.9275 25.7775 39.9275C24.71 40.875 27.2775 39.7975 30.6625 38.4975C34.0475 37.1975 35.8275 38.46 37.4125 38.145C38.9975 37.83 37.925 36.75 34.4625 36.535Z" fill="#CDCAB9"/>
</svg>
