<svg width="25" height="25" viewBox="0 0 25 25" fill="none" xmlns="http://www.w3.org/2000/svg">
<g clip-path="url(#clip0_90_549)">
<path fill-rule="evenodd" clip-rule="evenodd" d="M12.5 2.5C6.97715 2.5 2.5 6.97715 2.5 12.5C2.5 18.0228 6.97715 22.5 12.5 22.5C18.0228 22.5 22.5 18.0228 22.5 12.5C22.5 6.97715 18.0228 2.5 12.5 2.5ZM0 12.5C0 5.59644 5.59644 0 12.5 0C19.4036 0 25 5.59644 25 12.5C25 19.4036 19.4036 25 12.5 25C5.59644 25 0 19.4036 0 12.5ZM13.3839 7.86612C13.872 8.35427 13.872 9.14573 13.3839 9.63388L11.7678 11.25H16.25C16.9404 11.25 17.5 11.8096 17.5 12.5C17.5 13.1904 16.9404 13.75 16.25 13.75H11.7678L13.3839 15.3661C13.872 15.8543 13.872 16.6457 13.3839 17.1339C12.8957 17.622 12.1043 17.622 11.6161 17.1339L7.86612 13.3839C7.37796 12.8957 7.37796 12.1043 7.86612 11.6161L11.6161 7.86612C12.1043 7.37796 12.8957 7.37796 13.3839 7.86612Z" fill="white"/>
</g>
<defs>
<clipPath id="clip0_90_549">
<rect width="25" height="25" fill="white"/>
</clipPath>
</defs>
</svg>
