<svg width="230" height="228" viewBox="0 0 230 228" fill="none" xmlns="http://www.w3.org/2000/svg">
<g filter="url(#filter0_d_225_1224)">
<rect x="3.33661" y="52.6337" width="65.898" height="154.787" rx="32.949" transform="rotate(-27.6124 3.33661 52.6337)" fill="white"/>
</g>
<g filter="url(#filter1_d_225_1224)">
<path fill-rule="evenodd" clip-rule="evenodd" d="M162.244 67.2503C160.476 66.4041 158.473 66.1835 156.56 66.6245C154.647 67.0655 152.936 68.1421 151.705 69.6798C151.424 70.0276 150.999 70.7328 150.313 72.4362C149.631 74.1263 148.861 76.3778 147.741 79.649C146.749 82.5494 146.497 83.3508 146.397 84.0492C146.095 86.1797 146.582 88.3439 147.767 90.1253C148.153 90.7161 148.724 91.3257 150.861 93.5068L165.211 108.16C167.622 110.613 169.283 112.313 170.615 113.538C171.957 114.774 172.648 115.225 173.049 115.407C174.816 116.253 176.818 116.474 178.731 116.035C180.643 115.595 182.354 114.52 183.586 112.984C183.867 112.636 184.292 111.931 184.978 110.228C185.66 108.537 186.43 106.286 187.55 103.015C188.544 100.108 188.794 99.3129 188.896 98.6079C189.199 96.4795 188.711 94.3165 187.526 92.5318C187.138 91.9476 186.567 91.338 184.43 89.1569L170.08 74.5036C168.32 72.6698 166.518 70.8767 164.676 69.1257C163.334 67.8897 162.643 67.4386 162.244 67.2503ZM141.242 98.6407C141.952 99.3963 142.673 100.141 143.405 100.875L157.859 115.631C160.135 117.963 161.995 119.857 163.56 121.28C165.131 122.728 166.728 124.014 168.527 124.881C172.417 126.745 176.825 127.232 181.034 126.262C185.244 125.293 189.01 122.924 191.72 119.54C192.977 117.973 193.865 116.109 194.666 114.112C195.458 112.142 196.321 109.619 197.38 106.527L197.568 105.977C198.356 103.673 198.973 101.871 199.235 100.053C199.902 95.3742 198.833 90.6189 196.231 86.6932C195.211 85.1605 193.886 83.8118 192.19 82.0847L191.891 81.7754L177.434 67.0264C175.585 65.0911 173.684 63.205 171.736 61.3701C170.165 59.9225 168.568 58.6363 166.766 57.7756C162.876 55.9119 158.469 55.4254 154.259 56.3949C150.049 57.3645 146.284 59.7333 143.573 63.117C142.316 64.6841 141.429 66.5478 140.63 68.538C139.923 70.3439 139.26 72.1667 138.641 74.0048L119.297 130.53C115.746 123.785 109.985 118.485 102.984 115.521C95.9838 112.558 88.1719 112.113 80.8649 114.262C73.5579 116.41 67.2025 121.021 62.8694 127.317C58.5363 133.612 56.4905 141.208 57.0766 148.825C57.6627 156.441 60.845 163.613 66.0872 169.131C71.3293 174.648 78.311 178.176 85.8559 179.118C93.4007 180.06 101.047 178.36 107.508 174.303C113.968 170.246 118.847 164.082 121.323 156.848L141.242 98.6407ZM111.447 153.468C113.401 147.76 113.02 141.515 110.388 136.106C107.757 130.696 103.091 126.566 97.4159 124.624C91.7413 122.682 85.5231 123.087 80.1292 125.75C74.7354 128.413 70.6079 133.116 68.6545 138.823C66.7012 144.531 67.0821 150.777 69.7135 156.186C72.3449 161.595 77.0112 165.725 82.6859 167.667C88.3606 169.609 94.5788 169.204 99.9726 166.541C105.366 163.878 109.494 159.176 111.447 153.468Z" fill="white"/>
</g>
<ellipse cx="89.8182" cy="146.423" rx="22.891" ry="22.891" transform="rotate(-9.24806 89.8182 146.423)" fill="#362D63"/>
<defs>
<filter id="filter0_d_225_1224" x="14.8486" y="31.1027" width="115.61" height="147.677" filterUnits="userSpaceOnUse" color-interpolation-filters="sRGB">
<feFlood flood-opacity="0" result="BackgroundImageFix"/>
<feColorMatrix in="SourceAlpha" type="matrix" values="0 0 0 0 0 0 0 0 0 0 0 0 0 0 0 0 0 0 127 0" result="hardAlpha"/>
<feMorphology radius="2" operator="erode" in="SourceAlpha" result="effect1_dropShadow_225_1224"/>
<feOffset dx="7" dy="-1"/>
<feGaussianBlur stdDeviation="1.75"/>
<feComposite in2="hardAlpha" operator="out"/>
<feColorMatrix type="matrix" values="0 0 0 0 0 0 0 0 0 0 0 0 0 0 0 0 0 0 0.25 0"/>
<feBlend mode="normal" in2="BackgroundImageFix" result="effect1_dropShadow_225_1224"/>
<feBlend mode="normal" in="SourceGraphic" in2="effect1_dropShadow_225_1224" result="shape"/>
</filter>
<filter id="filter1_d_225_1224" x="55.4782" y="55.9078" width="151.45" height="132.964" filterUnits="userSpaceOnUse" color-interpolation-filters="sRGB">
<feFlood flood-opacity="0" result="BackgroundImageFix"/>
<feColorMatrix in="SourceAlpha" type="matrix" values="0 0 0 0 0 0 0 0 0 0 0 0 0 0 0 0 0 0 127 0" result="hardAlpha"/>
<feOffset dx="3" dy="5"/>
<feGaussianBlur stdDeviation="2.25"/>
<feComposite in2="hardAlpha" operator="out"/>
<feColorMatrix type="matrix" values="0 0 0 0 0 0 0 0 0 0 0 0 0 0 0 0 0 0 0.25 0"/>
<feBlend mode="normal" in2="BackgroundImageFix" result="effect1_dropShadow_225_1224"/>
<feBlend mode="normal" in="SourceGraphic" in2="effect1_dropShadow_225_1224" result="shape"/>
</filter>
</defs>
</svg>
