<svg width="120" height="120" viewBox="0 0 120 120" fill="none" xmlns="http://www.w3.org/2000/svg">
<path d="M76.72 5H43.28C22.1385 5 5 22.1385 5 43.28V76.72C5 97.8615 22.1385 115 43.28 115H76.72C97.8615 115 115 97.8615 115 76.72V43.28C115 22.1385 97.8615 5 76.72 5Z" fill="#F8DE40"/>
<path d="M35.275 36.565C33.5468 36.563 31.8568 37.0738 30.4189 38.0326C28.981 38.9914 27.8599 40.3553 27.1973 41.9515C26.5348 43.5477 26.3607 45.3046 26.697 46.9998C27.0333 48.695 27.865 50.2524 29.0867 51.4748C30.3084 52.6972 31.8653 53.5297 33.5603 53.867C35.2553 54.2043 37.0123 54.0312 38.6089 53.3696C40.2055 52.708 41.57 51.5876 42.5297 50.1503C43.4893 48.713 44.001 47.0233 44 45.295C43.9987 42.9809 43.0792 40.762 41.4434 39.1252C39.8076 37.4884 37.5891 36.5677 35.275 36.565Z" fill="#864E20"/>
<path d="M84.79 36.565C83.0611 36.56 81.3697 37.0682 79.9298 38.0253C78.49 38.9823 77.3665 40.3451 76.7017 41.941C76.0368 43.537 75.8606 45.2943 76.1952 46.9906C76.5298 48.6868 77.3603 50.2455 78.5814 51.4694C79.8025 52.6933 81.3593 53.5274 83.0548 53.8659C84.7502 54.2044 86.508 54.0322 88.1054 53.371C89.7029 52.7098 91.0683 51.5895 92.0286 50.1518C92.9889 48.7142 93.501 47.0239 93.5 45.295C93.4987 42.9835 92.5813 40.7668 90.9487 39.1304C89.3161 37.4941 87.1015 36.5716 84.79 36.565Z" fill="#864E20"/>
<path d="M70 56.035C69.7899 56.0395 69.5827 56.0854 69.3903 56.1701C69.1979 56.2547 69.0241 56.3764 68.8788 56.5283C68.7334 56.6801 68.6194 56.8591 68.5433 57.055C68.4671 57.2509 68.4303 57.4599 68.435 57.67C68.3997 60.1098 67.5157 62.4611 65.935 64.32C65.1469 65.0692 64.2138 65.6492 63.1931 66.0241C62.1723 66.399 61.0857 66.561 60 66.5C58.9166 66.5629 57.8318 66.4047 56.8115 66.0351C55.7912 65.6655 54.8567 65.0922 54.065 64.35C52.4755 62.4885 51.5906 60.1276 51.565 57.68C51.5689 57.4699 51.5314 57.261 51.4547 57.0654C51.3779 56.8698 51.2634 56.6912 51.1176 56.5398C50.9718 56.3885 50.7976 56.2673 50.605 56.1833C50.4124 56.0992 50.2051 56.0539 49.995 56.05C49.7849 56.046 49.576 56.0835 49.3804 56.1603C49.1848 56.2371 49.0062 56.3516 48.8548 56.4974C48.7035 56.6432 48.5823 56.8174 48.4983 57.01C48.4142 57.2026 48.3689 57.4099 48.365 57.62C48.3698 60.9186 49.5768 64.1023 51.76 66.575C52.8466 67.6312 54.1388 68.4528 55.5563 68.9887C56.9738 69.5245 58.4864 69.7633 60 69.69C61.5139 69.7606 63.0261 69.5192 64.4427 68.9807C65.8594 68.4423 67.1502 67.6183 68.235 66.56C70.4158 64.0858 71.6224 60.903 71.63 57.605C71.6195 57.1815 71.4425 56.7792 71.1374 56.4853C70.8323 56.1914 70.4236 56.0296 70 56.035Z" fill="#864E20"/>
<path d="M115 69.69C108.201 79.8715 98.9653 88.192 88.1321 93.895C77.2988 99.5981 65.2117 102.503 52.97 102.345C25.26 102.345 20.155 97.345 7.26001 89.7C9.93362 97.1093 14.8267 103.514 21.2724 108.041C27.7182 112.569 35.4031 114.999 43.28 115H76.72C86.8725 115 96.6092 110.967 103.788 103.788C110.967 96.6092 115 86.8725 115 76.72V69.69Z" fill="#E7C930"/>
</svg>
