<svg width="30" height="30" viewBox="0 0 30 30" fill="none" xmlns="http://www.w3.org/2000/svg">
<path d="M9.375 7.5L11.25 3.75H18.75L20.625 7.5H9.375Z" stroke="white" stroke-width="2" stroke-linejoin="round"/>
<path d="M25.625 7.5H4.375C3.33947 7.5 2.5 8.33947 2.5 9.375V24.375C2.5 25.4105 3.33947 26.25 4.375 26.25H25.625C26.6605 26.25 27.5 25.4105 27.5 24.375V9.375C27.5 8.33947 26.6605 7.5 25.625 7.5Z" stroke="white" stroke-width="2" stroke-linejoin="round"/>
<path d="M15 21.875C17.7614 21.875 20 19.6364 20 16.875C20 14.1136 17.7614 11.875 15 11.875C12.2386 11.875 10 14.1136 10 16.875C10 19.6364 12.2386 21.875 15 21.875Z" stroke="white" stroke-width="2" stroke-linejoin="round"/>
</svg>
