<svg width="13" height="14" viewBox="0 0 13 14" fill="none" xmlns="http://www.w3.org/2000/svg">
<path d="M8.5625 9.9375L9.4375 9.0625L7.125 6.75V3.875H5.875V7.25L8.5625 9.9375ZM6.5 13.25C5.63542 13.25 4.82292 13.0859 4.0625 12.7578C3.30208 12.4297 2.64062 11.9844 2.07812 11.4219C1.51562 10.8594 1.07031 10.1979 0.742188 9.4375C0.414062 8.67708 0.25 7.86458 0.25 7C0.25 6.13542 0.414062 5.32292 0.742188 4.5625C1.07031 3.80208 1.51562 3.14062 2.07812 2.57812C2.64062 2.01562 3.30208 1.57031 4.0625 1.24219C4.82292 0.914062 5.63542 0.75 6.5 0.75C7.36458 0.75 8.17708 0.914062 8.9375 1.24219C9.69792 1.57031 10.3594 2.01562 10.9219 2.57812C11.4844 3.14062 11.9297 3.80208 12.2578 4.5625C12.5859 5.32292 12.75 6.13542 12.75 7C12.75 7.86458 12.5859 8.67708 12.2578 9.4375C11.9297 10.1979 11.4844 10.8594 10.9219 11.4219C10.3594 11.9844 9.69792 12.4297 8.9375 12.7578C8.17708 13.0859 7.36458 13.25 6.5 13.25ZM6.5 12C7.88542 12 9.0651 11.513 10.0391 10.5391C11.013 9.5651 11.5 8.38542 11.5 7C11.5 5.61458 11.013 4.4349 10.0391 3.46094C9.0651 2.48698 7.88542 2 6.5 2C5.11458 2 3.9349 2.48698 2.96094 3.46094C1.98698 4.4349 1.5 5.61458 1.5 7C1.5 8.38542 1.98698 9.5651 2.96094 10.5391C3.9349 11.513 5.11458 12 6.5 12Z" fill="#362D63"/>
</svg>
