<svg width="61" height="60" viewBox="0 0 61 60" fill="none" xmlns="http://www.w3.org/2000/svg">
<path d="M38.86 2.5H22.14C11.5693 2.5 3 11.0693 3 21.64V38.36C3 48.9307 11.5693 57.5 22.14 57.5H38.86C49.4307 57.5 58 48.9307 58 38.36V21.64C58 11.0693 49.4307 2.5 38.86 2.5Z" fill="#DDDDDD"/>
<path d="M58 34.845C54.601 39.936 49.9831 44.0965 44.5663 46.9481C39.1496 49.7997 33.106 51.2518 26.985 51.1725C13.13 51.1725 10.5775 48.6725 4.13 44.85C5.46681 48.5546 7.91335 51.757 11.1362 54.0207C14.3591 56.2844 18.2016 57.4993 22.14 57.5H38.86C43.9362 57.5 48.8046 55.4834 52.394 51.894C55.9835 48.3046 58 43.4362 58 38.36V34.845Z" fill="#CDCAB9"/>
<path d="M43.5 31.8651C40.4475 27.7476 34.0275 26.2876 30.5 26.2876C26.9725 26.2876 20.54 27.7476 17.5 31.8651C14.46 35.9826 17.03 40.3651 20.32 40.0976C23.61 39.8301 29.185 39.1876 30.5125 39.1876C31.84 39.1876 37.4175 39.8326 40.705 40.0976C43.9925 40.3626 46.5675 35.9801 43.5 31.8651Z" fill="black"/>
<path d="M36.7625 42.555C34.7129 42.0235 32.6146 41.7018 30.5 41.595C28.3895 41.7021 26.2954 42.0237 24.25 42.555C23.31 42.745 23.275 43.515 24.25 43.385C25.225 43.255 30.5 42.97 30.5 42.97C30.5 42.97 35.7975 43.2575 36.7625 43.385C37.7275 43.5125 37.7 42.75 36.7625 42.555Z" fill="#CDCAB9"/>
<path d="M22.7675 24.6099C22.7651 24.7057 22.7326 24.7983 22.6746 24.8745C22.6165 24.9507 22.5359 25.0067 22.4442 25.0344C22.3525 25.0621 22.2544 25.0602 22.1638 25.0288C22.0733 24.9975 21.995 24.9384 21.94 24.8599C21.5657 24.2968 21.0819 23.8147 20.5175 23.4424C19.808 22.9714 18.9753 22.7201 18.1237 22.7201C17.2721 22.7201 16.4394 22.9714 15.73 23.4424C15.1632 23.8157 14.6777 24.2995 14.3025 24.8649C14.2475 24.9434 14.1692 25.0025 14.0786 25.0338C13.9881 25.0652 13.89 25.0671 13.7983 25.0394C13.7065 25.0117 13.6259 24.9557 13.5679 24.8795C13.5098 24.8033 13.4773 24.7107 13.475 24.6149C13.4647 23.689 13.7698 22.7871 14.34 22.0574C14.7909 21.4858 15.3655 21.0237 16.0206 20.7061C16.6758 20.3884 17.3944 20.2234 18.1225 20.2234C18.8506 20.2234 19.5692 20.3884 20.2243 20.7061C20.8795 21.0237 21.4541 21.4858 21.905 22.0574C22.4718 22.7868 22.7757 23.6862 22.7675 24.6099Z" fill="black"/>
<path d="M47.525 24.6099C47.5227 24.7057 47.4901 24.7983 47.4321 24.8745C47.3741 24.9507 47.2934 25.0067 47.2017 25.0344C47.11 25.0621 47.0119 25.0602 46.9213 25.0288C46.8308 24.9975 46.7525 24.9384 46.6975 24.8599C46.3234 24.2975 45.8406 23.8155 45.2775 23.4424C44.5676 22.9712 43.7345 22.7198 42.8825 22.7198C42.0304 22.7198 41.1973 22.9712 40.4875 23.4424C39.9207 23.8157 39.4352 24.2995 39.06 24.8649C39.005 24.9434 38.9267 25.0025 38.8361 25.0338C38.7456 25.0652 38.6475 25.0671 38.5558 25.0394C38.4641 25.0117 38.3834 24.9557 38.3254 24.8795C38.2673 24.8033 38.2348 24.7107 38.2325 24.6149C38.2222 23.689 38.5273 22.7871 39.0975 22.0574C39.5484 21.4858 40.123 21.0237 40.7781 20.7061C41.4333 20.3884 42.1519 20.2234 42.88 20.2234C43.6081 20.2234 44.3267 20.3884 44.9818 20.7061C45.637 21.0237 46.2116 21.4858 46.6625 22.0574C47.2293 22.7868 47.5332 23.6862 47.525 24.6099Z" fill="black"/>
<path d="M21.94 24.8649C21.5657 24.3018 21.082 23.8197 20.5175 23.4474C19.8081 22.9764 18.9754 22.7251 18.1238 22.7251C17.2722 22.7251 16.4395 22.9764 15.73 23.4474C15.1633 23.8207 14.6777 24.3045 14.3025 24.8699C14.2456 24.9543 14.161 25.0162 14.0634 25.045C13.9657 25.0737 13.8611 25.0675 13.7675 25.0274V53.1274C13.7669 53.7014 13.8793 54.2699 14.0985 54.8003C14.3177 55.3308 14.6393 55.8129 15.045 56.219C15.4506 56.625 15.9323 56.9472 16.4625 57.167C16.9927 57.3868 17.5611 57.4999 18.135 57.4999C19.2927 57.4986 20.4026 57.038 21.221 56.2191C22.0393 55.4003 22.4994 54.2901 22.5 53.1324V25.0124C22.4046 25.0598 22.2953 25.0709 22.1923 25.0438C22.0894 25.0167 21.9997 24.9531 21.94 24.8649Z" fill="#8E8E8E"/>
<path d="M46.6825 24.865C46.3084 24.3026 45.8256 23.8206 45.2625 23.4475C44.5527 22.9762 43.7196 22.7249 42.8675 22.7249C42.0155 22.7249 41.1824 22.9762 40.4725 23.4475C39.9058 23.8207 39.4202 24.3046 39.045 24.87C38.9881 24.9544 38.9035 25.0163 38.8059 25.0451C38.7082 25.0738 38.6036 25.0676 38.51 25.0275V53.1275C38.5097 53.7016 38.6225 54.2701 38.8419 54.8006C39.0614 55.3311 39.3832 55.8131 39.7891 56.2192C40.1949 56.6252 40.6768 56.9474 41.2071 57.1671C41.7375 57.3869 42.3059 57.5 42.88 57.5C43.4538 57.5003 44.022 57.3876 44.5521 57.1683C45.0823 56.9489 45.5641 56.6273 45.9699 56.2217C46.3757 55.8161 46.6977 55.3345 46.9173 54.8045C47.137 54.2744 47.25 53.7063 47.25 53.1325V25.0125C47.1538 25.062 47.0428 25.0743 46.9381 25.0471C46.8334 25.0199 46.7424 24.9551 46.6825 24.865Z" fill="#8E8E8E"/>
</svg>
