<svg width="120" height="120" viewBox="0 0 120 120" fill="none" xmlns="http://www.w3.org/2000/svg">
<path d="M76.72 5H43.28C22.1385 5 5 22.1385 5 43.28V76.72C5 97.8615 22.1385 115 43.28 115H76.72C97.8615 115 115 97.8615 115 76.72V43.28C115 22.1385 97.8615 5 76.72 5Z" fill="#F8DE40"/>
<path d="M115 69.69C108.202 79.8721 98.9661 88.1931 88.1327 93.8963C77.2993 99.5994 65.2119 102.504 52.97 102.345C25.26 102.345 20.155 97.345 7.26001 89.7C9.93362 97.1093 14.8267 103.514 21.2724 108.041C27.7182 112.569 35.4031 114.999 43.28 115H76.72C86.8725 115 96.6092 110.967 103.788 103.788C110.967 96.6092 115 86.8725 115 76.72V69.69Z" fill="#E7C930"/>
<path d="M86 63.73C79.895 55.495 67.055 52.575 60 52.575C52.945 52.575 40.08 55.495 34 63.73C27.92 71.965 33.06 80.73 39.64 80.195C46.22 79.66 57.37 78.375 60.025 78.375C62.68 78.375 73.835 79.665 80.41 80.195C86.985 80.725 92.135 71.96 86 63.73Z" fill="#864E20"/>
<path d="M72.525 85.11C68.4258 84.0471 64.2293 83.4038 60 83.19C55.779 83.4042 51.5907 84.0476 47.5 85.11C45.62 85.49 45.55 87.03 47.5 86.77C49.45 86.51 60 85.94 60 85.94C60 85.94 70.595 86.515 72.525 86.77C74.455 87.025 74.4 85.5 72.525 85.11Z" fill="#E7C930"/>
<path d="M44.535 49.22C44.5304 49.4115 44.4653 49.5967 44.3492 49.7492C44.2331 49.9016 44.0719 50.0135 43.8885 50.0689C43.705 50.1243 43.5088 50.1204 43.3277 50.0578C43.1467 49.9951 42.99 49.8769 42.88 49.72C42.1315 48.5937 41.1639 47.6296 40.035 46.885C38.6161 45.9429 36.9507 45.4403 35.2475 45.4403C33.5443 45.4403 31.8789 45.9429 30.46 46.885C29.3265 47.6314 28.3555 48.5991 27.605 49.73C27.4951 49.8869 27.3384 50.0051 27.1573 50.0678C26.9762 50.1304 26.78 50.1343 26.5966 50.0789C26.4132 50.0235 26.2519 49.9116 26.1358 49.7592C26.0197 49.6067 25.9547 49.4215 25.95 49.23C25.9295 47.3781 26.5396 45.5743 27.68 44.115C28.5818 42.9717 29.7311 42.0476 31.0413 41.4123C32.3516 40.777 33.7888 40.4469 35.245 40.4469C36.7012 40.4469 38.1384 40.777 39.4487 41.4123C40.759 42.0476 41.9082 42.9717 42.81 44.115C43.9437 45.5737 44.5515 47.3726 44.535 49.22Z" fill="#864E20"/>
<path d="M94.05 49.22C94.0453 49.4115 93.9803 49.5967 93.8642 49.7492C93.7481 49.9016 93.5868 50.0135 93.4034 50.0689C93.22 50.1243 93.0238 50.1204 92.8427 50.0578C92.6616 49.9951 92.5049 49.8769 92.395 49.72C91.6468 48.5951 90.6812 47.6312 89.555 46.885C88.1353 45.9424 86.4691 45.4397 84.765 45.4397C83.0609 45.4397 81.3947 45.9424 79.975 46.885C78.8415 47.6314 77.8704 48.5991 77.12 49.73C77.01 49.8869 76.8533 50.0051 76.6723 50.0678C76.4912 50.1304 76.295 50.1343 76.1115 50.0789C75.9281 50.0235 75.7669 49.9116 75.6508 49.7592C75.5347 49.6067 75.4696 49.4215 75.465 49.23C75.4445 47.3781 76.0546 45.5743 77.195 44.115C78.0968 42.9717 79.246 42.0476 80.5563 41.4123C81.8666 40.777 83.3038 40.4469 84.76 40.4469C86.2162 40.4469 87.6534 40.777 88.9637 41.4123C90.2739 42.0476 91.4232 42.9717 92.325 44.115C93.4586 45.5737 94.0665 47.3726 94.05 49.22Z" fill="#864E20"/>
<path d="M42.88 49.73C42.1314 48.6037 41.1639 47.6396 40.035 46.895C38.6161 45.9529 36.9507 45.4503 35.2475 45.4503C33.5443 45.4503 31.8789 45.9529 30.46 46.895C29.3265 47.6414 28.3554 48.6091 27.605 49.74C27.4911 49.9088 27.322 50.0326 27.1267 50.0901C26.9314 50.1476 26.7221 50.1352 26.535 50.055V106.255C26.5337 107.403 26.7586 108.54 27.197 109.601C27.6354 110.662 28.2786 111.626 29.0899 112.438C29.9011 113.25 30.8645 113.895 31.9249 114.334C32.9854 114.774 34.122 115 35.27 115C37.5854 114.997 39.8051 114.076 41.4419 112.438C43.0786 110.801 43.9987 108.58 44 106.265V50.025C43.8092 50.1197 43.5906 50.142 43.3846 50.0877C43.1787 50.0335 42.9994 49.9064 42.88 49.73Z" fill="#26A9E0"/>
<path d="M92.365 49.73C91.6169 48.6051 90.6513 47.6411 89.525 46.895C88.1053 45.9524 86.4391 45.4496 84.735 45.4496C83.0309 45.4496 81.3647 45.9524 79.945 46.895C78.8115 47.6414 77.8405 48.6091 77.09 49.74C76.9762 49.9088 76.807 50.0326 76.6117 50.0901C76.4164 50.1476 76.2072 50.1352 76.02 50.055V106.255C76.0194 107.403 76.2449 108.54 76.6839 109.601C77.1228 110.662 77.7665 111.626 78.5781 112.438C79.3898 113.25 80.3535 113.895 81.4142 114.334C82.4749 114.774 83.6118 115 84.76 115C85.9075 115.001 87.0439 114.775 88.1043 114.336C89.1647 113.898 90.1282 113.255 90.9398 112.443C91.7515 111.632 92.3953 110.669 92.8346 109.609C93.2739 108.549 93.5 107.412 93.5 106.265V50.025C93.3077 50.1239 93.0856 50.1485 92.8762 50.0941C92.6669 50.0397 92.4849 49.9101 92.365 49.73Z" fill="#26A9E0"/>
</svg>
