<svg width="39" height="43" viewBox="0 0 39 43" fill="none" xmlns="http://www.w3.org/2000/svg">
<path d="M19.5 18C20.8167 18 21.95 17.5542 22.9 16.6625C23.85 15.7708 24.3667 14.6667 24.45 13.35L25.2 14.05L26.25 13L23.75 10.5L21.25 13L22.3 14.05L22.95 13.4C22.85 14.2833 22.475 15.0208 21.825 15.6125C21.175 16.2042 20.4 16.5 19.5 16.5C19.2833 16.5 19.0708 16.4792 18.8625 16.4375C18.6542 16.3958 18.45 16.3333 18.25 16.25L17.15 17.35C17.5167 17.55 17.8958 17.7083 18.2875 17.825C18.6792 17.9417 19.0833 18 19.5 18ZM15.25 15.5L17.75 13L16.7 11.95L16.05 12.6C16.15 11.7167 16.525 10.9792 17.175 10.3875C17.825 9.79583 18.6 9.5 19.5 9.5C19.7167 9.5 19.9292 9.52083 20.1375 9.5625C20.3458 9.60417 20.55 9.66667 20.75 9.75L21.85 8.65C21.4833 8.45 21.1042 8.29167 20.7125 8.175C20.3208 8.05833 19.9167 8 19.5 8C18.1833 8 17.05 8.44583 16.1 9.3375C15.15 10.2292 14.6333 11.3333 14.55 12.65L13.8 11.95L12.75 13L15.25 15.5ZM11.5 21C10.95 21 10.4792 20.8042 10.0875 20.4125C9.69583 20.0208 9.5 19.55 9.5 19V7C9.5 6.45 9.69583 5.97917 10.0875 5.5875C10.4792 5.19583 10.95 5 11.5 5H14.65L16.5 3H22.5L24.35 5H27.5C28.05 5 28.5208 5.19583 28.9125 5.5875C29.3042 5.97917 29.5 6.45 29.5 7V19C29.5 19.55 29.3042 20.0208 28.9125 20.4125C28.5208 20.8042 28.05 21 27.5 21H11.5ZM11.5 19H27.5V7H23.45L21.625 5H17.375L15.55 7H11.5V19Z" fill="white"/>
<path d="M15.6768 33.02V34.15H12.7668V35.94H14.9968V37.05H12.7668V40H11.3668V33.02H15.6768ZM18.0695 32.6V40H16.6695V32.6H18.0695ZM20.1627 33.8C19.916 33.8 19.7094 33.7233 19.5427 33.57C19.3827 33.41 19.3027 33.2133 19.3027 32.98C19.3027 32.7467 19.3827 32.5533 19.5427 32.4C19.7094 32.24 19.916 32.16 20.1627 32.16C20.4094 32.16 20.6127 32.24 20.7727 32.4C20.9394 32.5533 21.0227 32.7467 21.0227 32.98C21.0227 33.2133 20.9394 33.41 20.7727 33.57C20.6127 33.7233 20.4094 33.8 20.1627 33.8ZM20.8527 34.46V40H19.4527V34.46H20.8527ZM23.6359 35.26C23.8159 35.0067 24.0626 34.7967 24.3759 34.63C24.6959 34.4567 25.0592 34.37 25.4659 34.37C25.9392 34.37 26.3659 34.4867 26.7459 34.72C27.1326 34.9533 27.4359 35.2867 27.6559 35.72C27.8826 36.1467 27.9959 36.6433 27.9959 37.21C27.9959 37.7767 27.8826 38.28 27.6559 38.72C27.4359 39.1533 27.1326 39.49 26.7459 39.73C26.3659 39.97 25.9392 40.09 25.4659 40.09C25.0592 40.09 24.6992 40.0067 24.3859 39.84C24.0792 39.6733 23.8292 39.4633 23.6359 39.21V42.64H22.2359V34.46H23.6359V35.26ZM26.5659 37.21C26.5659 36.8767 26.4959 36.59 26.3559 36.35C26.2226 36.1033 26.0426 35.9167 25.8159 35.79C25.5959 35.6633 25.3559 35.6 25.0959 35.6C24.8426 35.6 24.6026 35.6667 24.3759 35.8C24.1559 35.9267 23.9759 36.1133 23.8359 36.36C23.7026 36.6067 23.6359 36.8967 23.6359 37.23C23.6359 37.5633 23.7026 37.8533 23.8359 38.1C23.9759 38.3467 24.1559 38.5367 24.3759 38.67C24.6026 38.7967 24.8426 38.86 25.0959 38.86C25.3559 38.86 25.5959 38.7933 25.8159 38.66C26.0426 38.5267 26.2226 38.3367 26.3559 38.09C26.4959 37.8433 26.5659 37.55 26.5659 37.21Z" fill="white"/>
</svg>
