<svg width="39" height="42" viewBox="0 0 39 42" fill="none" xmlns="http://www.w3.org/2000/svg">
<mask id="mask0_176_1136" style="mask-type:alpha" maskUnits="userSpaceOnUse" x="12" y="3" width="15" height="16">
<path d="M12 11C12 7.71252 12 6.06878 12.908 4.96243C13.0742 4.75989 13.2599 4.57418 13.4624 4.40796C14.5688 3.5 16.2125 3.5 19.5 3.5C22.7875 3.5 24.4312 3.5 25.5376 4.40796C25.7401 4.57418 25.9258 4.75989 26.092 4.96243C27 6.06878 27 7.71252 27 11C27 14.2875 27 15.9312 26.092 17.0376C25.9258 17.2401 25.7401 17.4258 25.5376 17.592C24.4312 18.5 22.7875 18.5 19.5 18.5C16.2125 18.5 14.5688 18.5 13.4624 17.592C13.2599 17.4258 13.0742 17.2401 12.908 17.0376C12 15.9312 12 14.2875 12 11Z" fill="black"/>
</mask>
<g mask="url(#mask0_176_1136)">
<path fill-rule="evenodd" clip-rule="evenodd" d="M19.1976 12.1853L20.3471 13.4392C20.4523 13.5541 20.505 13.6115 20.5549 13.6534C20.9143 13.9553 21.4352 13.9666 21.8074 13.6806C21.8591 13.6409 21.9142 13.5858 22.0243 13.4757C22.2362 13.2638 22.3422 13.1578 22.4425 13.0802C23.1633 12.5223 24.1701 12.5223 24.8908 13.0802C24.9912 13.1578 25.0971 13.2638 25.309 13.4757L26.9474 15.1141C26.9811 15.1477 27.0267 15.1667 27.0743 15.1667C27.4865 15.1667 27.8141 14.8204 27.7912 14.4088L27.4051 7.45849C27.2332 4.36483 27.1473 2.81799 26.2769 1.79313C26.0404 1.51455 25.7667 1.26971 25.4636 1.06544C24.3487 0.313957 22.8018 0.399892 19.7082 0.571762L19.2918 0.594892C15.9705 0.779412 14.3098 0.871673 13.244 1.88494C13.1415 1.98238 13.0442 2.0852 12.9526 2.19295C12 3.31333 12 4.97704 12 8.30445V11.8333C12.4025 11.8333 12.8779 11.6875 13.3675 11.4663C15.3194 10.5846 16.2953 10.1437 16.9301 10.2738C17.5648 10.404 18.1091 10.9978 19.1976 12.1853ZM23.25 8.49999C23.9404 8.49999 24.5 7.94035 24.5 7.24999C24.5 6.55964 23.9404 5.99999 23.25 5.99999C22.5596 5.99999 22 6.55964 22 7.24999C22 7.94035 22.5596 8.49999 23.25 8.49999Z" fill="white"/>
</g>
<path d="M19.5 18.5H23C25.2091 18.5 27 16.7091 27 14.5V7.5C27 5.29086 25.2091 3.5 23 3.5H16C13.7909 3.5 12 5.29086 12 7.5V11" stroke="white" stroke-width="2" stroke-linecap="round"/>
<path d="M16.1667 14.3333V13.3333H17.1667V14.3333H16.1667ZM12.7071 19.2071C12.3166 19.5976 11.6834 19.5976 11.2929 19.2071C10.9024 18.8166 10.9024 18.1834 11.2929 17.7929L12.7071 19.2071ZM15.1667 18.5V14.3333H17.1667V18.5H15.1667ZM16.1667 15.3333H12V13.3333H16.1667V15.3333ZM16.8738 15.0405L12.7071 19.2071L11.2929 17.7929L15.4596 13.6262L16.8738 15.0405Z" fill="white"/>
<path d="M6.90547 32.12C6.74547 31.8267 6.52547 31.6033 6.24547 31.45C5.96547 31.2967 5.6388 31.22 5.26547 31.22C4.85214 31.22 4.48547 31.3133 4.16547 31.5C3.84547 31.6867 3.59547 31.9533 3.41547 32.3C3.23547 32.6467 3.14547 33.0467 3.14547 33.5C3.14547 33.9667 3.23547 34.3733 3.41547 34.72C3.60214 35.0667 3.8588 35.3333 4.18547 35.52C4.51214 35.7067 4.89214 35.8 5.32547 35.8C5.8588 35.8 6.29547 35.66 6.63547 35.38C6.97547 35.0933 7.1988 34.6967 7.30547 34.19H4.90547V33.12H8.68547V34.34C8.59214 34.8267 8.39214 35.2767 8.08547 35.69C7.7788 36.1033 7.38214 36.4367 6.89547 36.69C6.41547 36.9367 5.87547 37.06 5.27547 37.06C4.60214 37.06 3.99214 36.91 3.44547 36.61C2.90547 36.3033 2.4788 35.88 2.16547 35.34C1.8588 34.8 1.70547 34.1867 1.70547 33.5C1.70547 32.8133 1.8588 32.2 2.16547 31.66C2.4788 31.1133 2.90547 30.69 3.44547 30.39C3.99214 30.0833 4.5988 29.93 5.26547 29.93C6.05214 29.93 6.73547 30.1233 7.31547 30.51C7.89547 30.89 8.29547 31.4267 8.51547 32.12H6.90547ZM9.36125 34.21C9.36125 33.65 9.47125 33.1533 9.69125 32.72C9.91792 32.2867 10.2213 31.9533 10.6013 31.72C10.9879 31.4867 11.4179 31.37 11.8913 31.37C12.3046 31.37 12.6646 31.4533 12.9713 31.62C13.2846 31.7867 13.5346 31.9967 13.7213 32.25V31.46H15.1313V37H13.7213V36.19C13.5413 36.45 13.2913 36.6667 12.9713 36.84C12.6579 37.0067 12.2946 37.09 11.8813 37.09C11.4146 37.09 10.9879 36.97 10.6013 36.73C10.2213 36.49 9.91792 36.1533 9.69125 35.72C9.47125 35.28 9.36125 34.7767 9.36125 34.21ZM13.7213 34.23C13.7213 33.89 13.6546 33.6 13.5213 33.36C13.3879 33.1133 13.2079 32.9267 12.9813 32.8C12.7546 32.6667 12.5113 32.6 12.2513 32.6C11.9913 32.6 11.7513 32.6633 11.5312 32.79C11.3113 32.9167 11.1313 33.1033 10.9913 33.35C10.8579 33.59 10.7913 33.8767 10.7913 34.21C10.7913 34.5433 10.8579 34.8367 10.9913 35.09C11.1313 35.3367 11.3113 35.5267 11.5312 35.66C11.7579 35.7933 11.9979 35.86 12.2513 35.86C12.5113 35.86 12.7546 35.7967 12.9813 35.67C13.2079 35.5367 13.3879 35.35 13.5213 35.11C13.6546 34.8633 13.7213 34.57 13.7213 34.23ZM17.8986 29.6V37H16.4986V29.6H17.8986ZM20.6818 29.6V37H19.2818V29.6H20.6818ZM27.215 34.11C27.215 34.31 27.2017 34.49 27.175 34.65H23.125C23.1583 35.05 23.2983 35.3633 23.545 35.59C23.7917 35.8167 24.095 35.93 24.455 35.93C24.975 35.93 25.345 35.7067 25.565 35.26H27.075C26.915 35.7933 26.6083 36.2333 26.155 36.58C25.7017 36.92 25.145 37.09 24.485 37.09C23.9517 37.09 23.4717 36.9733 23.045 36.74C22.625 36.5 22.295 36.1633 22.055 35.73C21.8217 35.2967 21.705 34.7967 21.705 34.23C21.705 33.6567 21.8217 33.1533 22.055 32.72C22.2883 32.2867 22.615 31.9533 23.035 31.72C23.455 31.4867 23.9383 31.37 24.485 31.37C25.0117 31.37 25.4817 31.4833 25.895 31.71C26.315 31.9367 26.6383 32.26 26.865 32.68C27.0983 33.0933 27.215 33.57 27.215 34.11ZM25.765 33.71C25.7583 33.35 25.6283 33.0633 25.375 32.85C25.1217 32.63 24.8117 32.52 24.445 32.52C24.0983 32.52 23.805 32.6267 23.565 32.84C23.3317 33.0467 23.1883 33.3367 23.135 33.71H25.765ZM29.6369 32.32C29.8169 32.0267 30.0502 31.7967 30.3369 31.63C30.6302 31.4633 30.9635 31.38 31.3369 31.38V32.85H30.9669C30.5269 32.85 30.1935 32.9533 29.9669 33.16C29.7469 33.3667 29.6369 33.7267 29.6369 34.24V37H28.2369V31.46H29.6369V32.32ZM37.5798 31.46L34.1498 39.62H32.6598L33.8598 36.86L31.6398 31.46H33.2098L34.6398 35.33L36.0898 31.46H37.5798Z" fill="white"/>
</svg>
