<svg width="120" height="120" viewBox="0 0 120 120" fill="none" xmlns="http://www.w3.org/2000/svg">
<path d="M76.72 5H43.28C22.1385 5 5 22.1385 5 43.28V76.72C5 97.8615 22.1385 115 43.28 115H76.72C97.8615 115 115 97.8615 115 76.72V43.28C115 22.1385 97.8615 5 76.72 5Z" fill="#C7C7C7"/>
<path d="M35.275 36.5649C33.5467 36.563 31.8567 37.0737 30.4189 38.0325C28.981 38.9914 27.8598 40.3552 27.1973 41.9514C26.5348 43.5477 26.3607 45.3045 26.697 46.9998C27.0333 48.695 27.8649 50.2523 29.0867 51.4747C30.3084 52.6972 31.8652 53.5297 33.5603 53.867C35.2553 54.2043 37.0123 54.0312 38.6089 53.3695C40.2055 52.7079 41.57 51.5876 42.5296 50.1502C43.4893 48.7129 44.001 47.0232 44 45.2949C43.9987 42.9809 43.0792 40.7619 41.4433 39.1251C39.8075 37.4884 37.5891 36.5676 35.275 36.5649Z" fill="black"/>
<path d="M84.79 36.565C83.0611 36.56 81.3697 37.0682 79.9298 38.0253C78.49 38.9823 77.3665 40.3451 76.7017 41.941C76.0368 43.537 75.8606 45.2943 76.1952 46.9906C76.5298 48.6868 77.3603 50.2455 78.5814 51.4694C79.8025 52.6933 81.3593 53.5274 83.0548 53.8659C84.7502 54.2044 86.508 54.0322 88.1054 53.371C89.7029 52.7098 91.0683 51.5895 92.0286 50.1518C92.9889 48.7142 93.501 47.0239 93.5 45.295C93.4987 42.9835 92.5813 40.7668 90.9487 39.1304C89.3161 37.4941 87.1015 36.5716 84.79 36.565Z" fill="black"/>
<path d="M115 69.6899C108.201 79.8714 98.9653 88.1919 88.1321 93.895C77.2988 99.5981 65.2117 102.503 52.97 102.345C25.26 102.345 20.155 97.3449 7.26001 89.6999C9.93362 97.1092 14.8267 103.514 21.2724 108.041C27.7182 112.569 35.4031 114.999 43.28 115H76.72C86.8725 115 96.6092 110.967 103.788 103.788C110.967 96.6091 115 86.8724 115 76.7199V69.6899Z" fill="#CDCAB9"/>
<path d="M83 61.2501C76.084 65.4903 68.1119 67.693 60 67.6051C51.8881 67.693 43.916 65.4903 37 61.2501C37 61.2501 34.745 59.8851 36.155 62.6151C37.565 65.3451 45.49 67.2651 45.565 68.2801C49.7492 71.3745 54.8159 73.0445 60.02 73.0445C65.2241 73.0445 70.2908 71.3745 74.475 68.2801C74.55 67.2801 82.475 65.3501 83.885 62.6151C85.295 59.8801 83 61.2501 83 61.2501Z" fill="black"/>
<path d="M72.11 74.805C68.4355 76.9525 64.256 78.0843 60 78.0843C55.744 78.0843 51.5645 76.9525 47.89 74.805C45.77 73.665 45.51 75.625 49.65 78.085C52.7418 80.0902 56.3176 81.2234 60 81.365C63.6824 81.2234 67.2582 80.0902 70.35 78.085C74.5 75.625 74.23 73.665 72.11 74.805Z" fill="#CDCAB9"/>
</svg>
