<svg width="61" height="60" viewBox="0 0 61 60" fill="none" xmlns="http://www.w3.org/2000/svg">
<path d="M38.86 2.5H22.14C11.5693 2.5 3 11.0693 3 21.64V38.36C3 48.9307 11.5693 57.5 22.14 57.5H38.86C49.4307 57.5 58 48.9307 58 38.36V21.64C58 11.0693 49.4307 2.5 38.86 2.5Z" fill="#F8DE40"/>
<path d="M18.1375 18.2825C17.2734 18.2815 16.4284 18.5369 15.7094 19.0163C14.9905 19.4957 14.4299 20.1776 14.0987 20.9757C13.7674 21.7738 13.6804 22.6523 13.8485 23.4999C14.0167 24.3475 14.4325 25.1262 15.0433 25.7374C15.6542 26.3486 16.4326 26.7648 17.2802 26.9335C18.1277 27.1021 19.0062 27.0156 19.8045 26.6848C20.6028 26.354 21.285 25.7938 21.7648 25.0751C22.2447 24.3565 22.5005 23.5116 22.5 22.6475C22.4994 21.4904 22.0396 20.3809 21.2217 19.5626C20.4038 18.7442 19.2945 18.2838 18.1375 18.2825Z" fill="#864E20"/>
<path d="M42.895 18.2825C42.0306 18.28 41.1848 18.5341 40.4649 19.0126C39.745 19.4911 39.1832 20.1725 38.8508 20.9705C38.5184 21.7685 38.4303 22.6472 38.5976 23.4953C38.7649 24.3434 39.1801 25.1228 39.7907 25.7347C40.4012 26.3467 41.1797 26.7637 42.0274 26.9329C42.8751 27.1022 43.754 27.0161 44.5527 26.6855C45.3515 26.3549 46.0341 25.7947 46.5143 25.0759C46.9945 24.3571 47.2505 23.5119 47.25 22.6475C47.2494 21.4918 46.7906 20.3834 45.9743 19.5652C45.1581 18.7471 44.0507 18.2858 42.895 18.2825Z" fill="#864E20"/>
<path d="M58 34.845C54.6006 39.9357 49.9827 44.096 44.566 46.9475C39.1494 49.799 33.1059 51.2514 26.985 51.1725C13.13 51.1725 10.5775 48.6725 4.13 44.85C5.46681 48.5546 7.91335 51.757 11.1362 54.0207C14.3591 56.2844 18.2016 57.4993 22.14 57.5H38.86C43.9362 57.5 48.8046 55.4834 52.394 51.894C55.9835 48.3046 58 43.4362 58 38.36V34.845Z" fill="#E7C930"/>
<path d="M42 30.6249C38.542 32.745 34.556 33.8464 30.5 33.8024C26.4441 33.8464 22.458 32.745 19 30.6249C19 30.6249 17.8725 29.9424 18.5775 31.3074C19.2825 32.6724 23.245 33.6324 23.2825 34.1399C25.3746 35.6871 27.908 36.5221 30.51 36.5221C33.1121 36.5221 35.6454 35.6871 37.7375 34.1399C37.775 33.6399 41.7375 32.6749 42.4425 31.3074C43.1475 29.9399 42 30.6249 42 30.6249Z" fill="#864E20"/>
<path d="M36.555 37.4025C34.7177 38.4762 32.628 39.0421 30.5 39.0421C28.372 39.0421 26.2822 38.4762 24.445 37.4025C23.385 36.8325 23.255 37.8125 25.325 39.0425C26.8709 40.0451 28.6588 40.6117 30.5 40.6825C32.3412 40.6117 34.1291 40.0451 35.675 39.0425C37.75 37.8125 37.615 36.8325 36.555 37.4025Z" fill="#E7C930"/>
</svg>
