<svg width="60" height="60" viewBox="0 0 60 60" fill="none" xmlns="http://www.w3.org/2000/svg">
<path d="M38.36 2.5H21.64C11.0693 2.5 2.5 11.0693 2.5 21.64V38.36C2.5 48.9307 11.0693 57.5 21.64 57.5H38.36C48.9307 57.5 57.5 48.9307 57.5 38.36V21.64C57.5 11.0693 48.9307 2.5 38.36 2.5Z" fill="#F8DE40"/>
<path d="M17.6375 18.2825C16.7734 18.2815 15.9284 18.5369 15.2094 19.0163C14.4905 19.4957 13.9299 20.1776 13.5987 20.9757C13.2674 21.7738 13.1804 22.6523 13.3485 23.4999C13.5167 24.3475 13.9325 25.1262 14.5433 25.7374C15.1542 26.3486 15.9326 26.7648 16.7802 26.9335C17.6277 27.1021 18.5062 27.0156 19.3045 26.6848C20.1028 26.354 20.785 25.7938 21.2648 25.0751C21.7447 24.3565 22.0005 23.5116 22 22.6475C21.9994 21.4904 21.5396 20.3809 20.7217 19.5626C19.9038 18.7442 18.7945 18.2838 17.6375 18.2825Z" fill="#864E20"/>
<path d="M42.395 18.2825C41.5306 18.28 40.6848 18.5341 39.9649 19.0126C39.245 19.4911 38.6832 20.1725 38.3508 20.9705C38.0184 21.7685 37.9303 22.6472 38.0976 23.4953C38.2649 24.3434 38.6801 25.1228 39.2907 25.7347C39.9012 26.3467 40.6797 26.7637 41.5274 26.9329C42.3751 27.1022 43.254 27.0161 44.0527 26.6855C44.8515 26.3549 45.5341 25.7947 46.0143 25.0759C46.4945 24.3571 46.7505 23.5119 46.75 22.6475C46.7494 21.4918 46.2906 20.3834 45.4743 19.5652C44.6581 18.7471 43.5507 18.2858 42.395 18.2825Z" fill="#864E20"/>
<path d="M57.5 34.845C54.1006 39.9357 49.4827 44.096 44.066 46.9475C38.6494 49.799 32.6059 51.2514 26.485 51.1725C12.63 51.1725 10.0775 48.6725 3.63 44.85C4.96681 48.5546 7.41335 51.757 10.6362 54.0207C13.8591 56.2844 17.7016 57.4993 21.64 57.5H38.36C43.4362 57.5 48.3046 55.4834 51.894 51.894C55.4835 48.3046 57.5 43.4362 57.5 38.36V34.845Z" fill="#E7C930"/>
<path d="M41.5 30.6249C38.0419 32.745 34.0559 33.8464 30 33.8024C25.944 33.8464 21.958 32.745 18.5 30.6249C18.5 30.6249 17.3725 29.9424 18.0775 31.3074C18.7825 32.6724 22.745 33.6324 22.7825 34.1399C24.8745 35.6871 27.4079 36.5221 30.01 36.5221C32.612 36.5221 35.1454 35.6871 37.2375 34.1399C37.275 33.6399 41.2375 32.6749 41.9425 31.3074C42.6475 29.9399 41.5 30.6249 41.5 30.6249Z" fill="#864E20"/>
<path d="M36.055 37.4025C34.2177 38.4762 32.128 39.0421 30 39.0421C27.872 39.0421 25.7822 38.4762 23.945 37.4025C22.885 36.8325 22.755 37.8125 24.825 39.0425C26.3709 40.0451 28.1588 40.6117 30 40.6825C31.8412 40.6117 33.6291 40.0451 35.175 39.0425C37.25 37.8125 37.115 36.8325 36.055 37.4025Z" fill="#E7C930"/>
</svg>
