<svg width="18" height="18" viewBox="0 0 18 18" fill="none" xmlns="http://www.w3.org/2000/svg">
<path d="M6.75 15.75H3.75C3.3375 15.75 2.98438 15.6031 2.69063 15.3094C2.39687 15.0156 2.25 14.6625 2.25 14.25V9C2.25 8.0625 2.42813 7.18438 2.78438 6.36563C3.14063 5.54688 3.62188 4.83438 4.22813 4.22813C4.83438 3.62188 5.54688 3.14063 6.36563 2.78438C7.18438 2.42813 8.0625 2.25 9 2.25C9.9375 2.25 10.8156 2.42813 11.6344 2.78438C12.4531 3.14063 13.1656 3.62188 13.7719 4.22813C14.3781 4.83438 14.8594 5.54688 15.2156 6.36563C15.5719 7.18438 15.75 8.0625 15.75 9V14.25C15.75 14.6625 15.6031 15.0156 15.3094 15.3094C15.0156 15.6031 14.6625 15.75 14.25 15.75H11.25V9.75H14.25V9C14.25 7.5375 13.7406 6.29688 12.7219 5.27813C11.7031 4.25938 10.4625 3.75 9 3.75C7.5375 3.75 6.29688 4.25938 5.27813 5.27813C4.25938 6.29688 3.75 7.5375 3.75 9V9.75H6.75V15.75ZM5.25 11.25H3.75V14.25H5.25V11.25ZM12.75 11.25V14.25H14.25V11.25H12.75Z" fill="#362D63"/>
</svg>
