<svg width="200" height="200" viewBox="0 0 200 200" fill="none" xmlns="http://www.w3.org/2000/svg">
<path d="M100.448 192.204C153.143 192.204 195.86 167.109 195.86 136.152C195.86 105.195 153.143 80.1001 100.448 80.1001C47.7534 80.1001 5.03601 105.195 5.03601 136.152C5.03601 167.109 47.7534 192.204 100.448 192.204Z" fill="#F5F5F5"/>
<path d="M41.948 168.492L12.8 151.668C11.784 151.08 11.784 150.128 12.8 149.54L65.48 119.12C66.0501 118.83 66.6805 118.679 67.32 118.679C67.9595 118.679 68.59 118.83 69.16 119.12L98.304 135.948C99.324 136.536 99.324 137.488 98.304 138.076L45.632 168.476C45.0625 168.768 44.4321 168.922 43.7919 168.925C43.1518 168.928 42.52 168.779 41.948 168.492Z" fill="#E0E0E0"/>
<path d="M145.492 169.688C160.879 169.688 173.352 162.487 173.352 153.604C173.352 144.721 160.879 137.52 145.492 137.52C130.105 137.52 117.632 144.721 117.632 153.604C117.632 162.487 130.105 169.688 145.492 169.688Z" fill="#E0E0E0"/>
<path d="M40.088 137.704C40.216 133 38.888 125.112 34.272 117.24C29.312 108.8 22.768 103.168 17.264 104.884C12.144 106.484 13.264 113.436 20.972 121.012C26.376 126.324 31.848 133.068 34.348 140.772L38.684 150.696L40.088 137.704Z" fill="#E4B1F0"/>
<path d="M40.088 137.704C40.216 133 38.888 125.112 34.272 117.24C29.312 108.8 22.768 103.168 17.264 104.884C12.144 106.484 13.264 113.436 20.972 121.012C26.376 126.324 31.848 133.068 34.348 140.772L38.684 150.696L40.088 137.704Z" fill="#E4B1F0"/>
<g opacity="0.1">
<path d="M40.088 137.704C40.216 133 38.888 125.112 34.272 117.24C29.312 108.8 22.768 103.168 17.264 104.884C12.144 106.484 13.264 113.436 20.972 121.012C26.376 126.324 31.848 133.068 34.348 140.772L38.684 150.696L40.088 137.704Z" fill="black"/>
</g>
<g opacity="0.2">
<path d="M40.088 137.704C40.216 133 38.888 125.112 34.272 117.24C29.312 108.8 22.768 103.168 17.264 104.884C12.144 106.484 13.264 113.436 20.972 121.012C26.376 126.324 31.848 133.068 34.348 140.772L38.684 150.696L40.088 137.704Z" fill="black"/>
</g>
<path d="M39.232 141.2C39.1639 141.193 39.0996 141.165 39.048 141.119C38.9965 141.074 38.9601 141.014 38.944 140.948C35.644 127.516 27.28 113.38 19.488 108.068C19.4148 108.018 19.3642 107.942 19.3473 107.855C19.3305 107.769 19.3487 107.679 19.398 107.606C19.4473 107.533 19.5237 107.482 19.6104 107.465C19.697 107.448 19.7868 107.466 19.86 107.516C27.776 112.92 36.256 127.22 39.6 140.8C39.6194 140.885 39.6048 140.975 39.5592 141.049C39.5137 141.124 39.4408 141.178 39.356 141.2C39.3149 141.206 39.2731 141.206 39.232 141.2Z" fill="white"/>
<path d="M38.84 160.292C38.84 160.292 34.972 162.88 28.968 163.004C22.964 163.128 19.34 159.928 19.34 159.928C19.34 159.928 23.832 154.768 27.38 153.684C23.6167 153.949 20.0318 155.391 17.132 157.804C17.132 157.804 12.188 155.804 11.532 150.144C11.532 150.144 14.944 147.344 22.332 146.544C20.9084 146.085 19.4576 145.715 17.988 145.436C15.4502 145.105 12.8873 145.01 10.332 145.152C8.27201 141.432 9.79201 136.316 8.75201 132.188C13.152 130.384 18.168 130.8 22.836 131.788C23.4767 131.878 24.0906 132.104 24.636 132.452C25.2725 133 25.7307 133.726 25.952 134.536C26.3961 135.781 26.7163 137.068 26.908 138.376C28.0034 136.88 28.8652 135.227 29.464 133.472C31.196 133.72 34.78 134.436 36.888 136.432C37.088 139.292 36.664 141.412 35.884 144.332C38.732 142.248 38.772 141.004 39.796 139.048C40.9425 140.038 41.8771 141.25 42.5439 142.61C43.2106 143.97 43.5957 145.451 43.676 146.964C43.702 147.85 43.6739 148.737 43.592 149.62C43.5764 150.665 43.4694 151.706 43.272 152.732C43.0274 153.679 42.7022 154.604 42.3 155.496C41.5124 157.329 40.3312 158.966 38.84 160.292Z" fill="#E4B1F0"/>
<path opacity="0.4" d="M38.84 160.292C38.84 160.292 34.972 162.88 28.968 163.004C22.964 163.128 19.34 159.928 19.34 159.928C19.34 159.928 23.832 154.768 27.38 153.684C23.6167 153.949 20.0318 155.391 17.132 157.804C17.132 157.804 12.188 155.804 11.532 150.144C11.532 150.144 14.944 147.344 22.332 146.544C20.9084 146.085 19.4576 145.715 17.988 145.436C15.4502 145.105 12.8873 145.01 10.332 145.152C8.27201 141.432 9.79201 136.316 8.75201 132.188C13.152 130.384 18.168 130.8 22.836 131.788C23.4767 131.878 24.0906 132.104 24.636 132.452C25.2725 133 25.7307 133.726 25.952 134.536C26.3961 135.781 26.7163 137.068 26.908 138.376C28.0034 136.88 28.8652 135.227 29.464 133.472C31.196 133.72 34.78 134.436 36.888 136.432C37.088 139.292 36.664 141.412 35.884 144.332C38.732 142.248 38.772 141.004 39.796 139.048C40.9425 140.038 41.8771 141.25 42.5439 142.61C43.2106 143.97 43.5957 145.451 43.676 146.964C43.702 147.85 43.6739 148.737 43.592 149.62C43.5764 150.665 43.4694 151.706 43.272 152.732C43.0274 153.679 42.7022 154.604 42.3 155.496C41.5124 157.329 40.3312 158.966 38.84 160.292Z" fill="black"/>
<path d="M38.8 160.624C38.7388 160.614 38.6814 160.587 38.6342 160.547C38.587 160.507 38.5516 160.455 38.532 160.396C35.144 149.896 19.1 136.032 12.96 133.94C12.9183 133.926 12.8799 133.904 12.8468 133.875C12.8138 133.846 12.7868 133.811 12.7675 133.771C12.7481 133.732 12.7368 133.689 12.7341 133.645C12.7315 133.601 12.7375 133.557 12.752 133.516C12.7795 133.437 12.8362 133.371 12.9106 133.332C12.985 133.293 13.0714 133.285 13.152 133.308C19.396 135.436 35.708 149.524 39.152 160.192C39.1736 160.273 39.1633 160.36 39.1232 160.435C39.0831 160.509 39.0161 160.565 38.936 160.592C38.8931 160.611 38.847 160.622 38.8 160.624Z" fill="white"/>
<path d="M89.144 16.8L40.892 44.668C40.1284 45.1081 39.4891 45.7351 39.0343 46.4901C38.5795 47.245 38.3241 48.1032 38.292 48.984V161.164C38.292 162.932 39.38 164.996 40.728 165.772C42.076 166.548 44.404 166.464 45.928 165.58L94 137.824C94.8056 137.297 95.4762 136.588 95.9576 135.754C96.4391 134.92 96.718 133.985 96.772 133.024V21.22C96.772 19.452 95.68 17.392 94.336 16.612C92.992 15.832 90.672 15.924 89.144 16.8Z" fill="#E4B1F0"/>
<path opacity="0.15" d="M45.272 165.896C43.792 166.472 41.892 166.444 40.728 165.772C39.384 164.996 38.292 162.932 38.292 161.164V48.9839C38.3208 48.1455 38.5616 47.328 38.992 46.6079L43.464 49.1439C42.6889 50.0494 42.2347 51.1856 42.172 52.3759V163.412C42.172 165.54 43.516 166.548 45.272 165.896Z" fill="black"/>
<path d="M44.616 48.14C43.9056 48.6056 43.3144 49.2314 42.8899 49.9671C42.4654 50.7028 42.2195 51.5279 42.172 52.376V163.416C42.172 165.816 43.864 166.78 45.932 165.584L94 137.824C94.8056 137.297 95.4761 136.588 95.9576 135.754C96.4391 134.92 96.718 133.985 96.772 133.024V21.22C96.772 19.46 95.524 18.74 94 19.62L44.616 48.14Z" fill="#E4B1F0"/>
<path d="M47.124 54.98C46.3567 55.4799 45.7182 56.1537 45.2602 56.9467C44.8021 57.7397 44.5376 58.6296 44.488 59.544V155.088C44.488 156.768 45.664 157.452 47.12 156.612L92.352 130.492C93.1171 129.991 93.7539 129.317 94.211 128.525C94.6682 127.733 94.9329 126.845 94.984 125.932V30.4C94.984 28.728 93.784 28.044 92.352 28.88L47.124 54.98Z" fill="#37474F"/>
<path d="M91.956 130.224C92.7211 129.723 93.3579 129.049 93.815 128.257C94.2722 127.465 94.537 126.577 94.588 125.664V30.1158C94.6056 29.8432 94.5687 29.5697 94.4794 29.3115C94.3901 29.0532 94.2503 28.8154 94.068 28.6118C93.7826 28.5188 93.4794 28.4931 93.1824 28.5368C92.8854 28.5806 92.6025 28.6925 92.356 28.8638L47.124 54.9798C46.3567 55.4798 45.7182 56.1536 45.2602 56.9466C44.8022 57.7396 44.5376 58.6294 44.488 59.5438V155.088C44.4691 155.361 44.505 155.635 44.5936 155.894C44.6822 156.153 44.8218 156.392 45.004 156.596C45.2901 156.689 45.5938 156.714 45.8915 156.67C46.1891 156.627 46.4726 156.515 46.72 156.344L91.956 130.224Z" fill="#455A64"/>
<path d="M65.972 39.4399L74 34.7999C74.476 34.5239 74.864 34.7199 74.864 35.2359C74.843 35.5269 74.7539 35.8089 74.6038 36.059C74.4537 36.3091 74.2469 36.5205 74 36.6759L66 41.3039C65.52 41.5799 65.132 41.3839 65.132 40.8639C65.1525 40.5778 65.239 40.3003 65.3847 40.0532C65.5305 39.8062 65.7315 39.5962 65.972 39.4399Z" fill="#455A64"/>
<path d="M79.728 31.4839C80.176 31.2279 80.528 31.4359 80.528 31.9559C80.5142 32.2363 80.4346 32.5095 80.2956 32.7534C80.1566 32.9973 79.9622 33.2051 79.728 33.3599C79.276 33.6199 78.928 33.4119 78.928 32.8919C78.9408 32.6107 79.02 32.3366 79.159 32.0919C79.298 31.8472 79.493 31.6388 79.728 31.4839Z" fill="#455A64"/>
<path d="M82.98 29.6C83.428 29.34 83.78 29.548 83.78 30.068C83.7656 30.3488 83.6858 30.6223 83.5469 30.8668C83.408 31.1112 83.2138 31.3199 82.98 31.476C82.528 31.732 82.18 31.524 82.18 31.004C82.1934 30.7235 82.2729 30.4502 82.4119 30.2062C82.5509 29.9622 82.7456 29.7545 82.98 29.6Z" fill="#455A64"/>
<path d="M56.98 44.62C57.428 44.36 57.78 44.572 57.78 45.088C57.7662 45.3689 57.6866 45.6427 57.5477 45.8873C57.4087 46.1318 57.2143 46.3403 56.98 46.496C56.532 46.756 56.18 46.544 56.18 46.028C56.1938 45.7471 56.2733 45.4733 56.4123 45.2287C56.5512 44.9842 56.7457 44.7757 56.98 44.62Z" fill="#455A64"/>
<path d="M60.232 42.7439C60.68 42.4879 61.032 42.6959 61.032 43.2159C61.0182 43.4963 60.9386 43.7695 60.7997 44.0134C60.6607 44.2573 60.4662 44.4651 60.232 44.6199C59.784 44.8799 59.432 44.6719 59.432 44.1519C59.4464 43.8711 59.5262 43.5975 59.6651 43.3531C59.804 43.1086 59.9982 42.9 60.232 42.7439Z" fill="#455A64"/>
<path d="M41.284 65.7679C41.2745 65.4777 41.1972 65.1938 41.0582 64.9389C40.9193 64.684 40.7227 64.4652 40.484 64.2999C40.4041 64.2428 40.3104 64.2082 40.2126 64.1998C40.1148 64.1913 40.0165 64.2093 39.928 64.2519C39.824 64.3159 39.424 64.5399 39.316 64.6039C39.2287 64.6705 39.1601 64.7585 39.1166 64.8594C39.0732 64.9603 39.0564 65.0706 39.068 65.1799V78.1879C39.0769 78.4781 39.154 78.7623 39.2929 79.0173C39.4319 79.2723 39.6289 79.491 39.868 79.6559C39.9449 79.7105 40.0345 79.7447 40.1282 79.7552C40.222 79.7657 40.3169 79.7522 40.404 79.7159C40.516 79.6559 40.924 79.4199 41.032 79.3559C41.1213 79.2898 41.1915 79.2015 41.2358 79.0997C41.28 78.9978 41.2966 78.8862 41.284 78.7759V65.7679Z" fill="#E4B1F0"/>
<path opacity="0.4" d="M41.284 65.7679C41.2745 65.4777 41.1972 65.1938 41.0582 64.9389C40.9193 64.684 40.7227 64.4652 40.484 64.2999C40.4041 64.2428 40.3104 64.2082 40.2126 64.1998C40.1148 64.1913 40.0165 64.2093 39.928 64.2519C39.824 64.3159 39.424 64.5399 39.316 64.6039C39.2287 64.6705 39.1601 64.7585 39.1166 64.8594C39.0732 64.9603 39.0564 65.0706 39.068 65.1799V78.1879C39.0769 78.4781 39.154 78.7623 39.2929 79.0173C39.4319 79.2723 39.6289 79.491 39.868 79.6559C39.9449 79.7105 40.0345 79.7447 40.1282 79.7552C40.222 79.7657 40.3169 79.7522 40.404 79.7159C40.516 79.6559 40.924 79.4199 41.032 79.3559C41.1213 79.2898 41.1915 79.2015 41.2358 79.0997C41.28 78.9978 41.2966 78.8862 41.284 78.7759V65.7679Z" fill="black"/>
<path d="M40.68 66.116V79.128C40.68 79.68 40.316 79.928 39.88 79.656C39.6409 79.4912 39.4439 79.2724 39.3049 79.0174C39.166 78.7624 39.0889 78.4783 39.08 78.188V65.2C39.08 64.648 39.444 64.4 39.88 64.668C40.116 64.8313 40.3111 65.047 40.4499 65.2982C40.5886 65.5494 40.6674 65.8293 40.68 66.116Z" fill="#E4B1F0"/>
<path d="M41.284 83.1999C41.2748 82.9091 41.1976 82.6246 41.0587 82.369C40.9198 82.1134 40.723 81.8938 40.484 81.7279C40.4043 81.6703 40.3103 81.6357 40.2122 81.6279C40.1141 81.6201 40.0158 81.6395 39.928 81.6839L39.316 82.0319C39.2287 82.0986 39.1601 82.1866 39.1166 82.2874C39.0732 82.3883 39.0564 82.4987 39.068 82.6079V88.7399C39.0769 89.0307 39.154 89.3154 39.2929 89.5711C39.4318 89.8267 39.6288 90.0462 39.868 90.2119C39.9448 90.267 40.0346 90.3011 40.1286 90.3109C40.2226 90.3208 40.3175 90.3059 40.404 90.2679C40.516 90.2079 40.924 89.9719 41.032 89.9079C41.1206 89.8422 41.1905 89.7545 41.2347 89.6535C41.2789 89.5524 41.2959 89.4416 41.284 89.3319V83.1999Z" fill="#E4B1F0"/>
<path opacity="0.4" d="M41.284 83.1999C41.2748 82.9091 41.1976 82.6246 41.0587 82.369C40.9198 82.1134 40.723 81.8938 40.484 81.7279C40.4043 81.6703 40.3103 81.6357 40.2122 81.6279C40.1141 81.6201 40.0158 81.6395 39.928 81.6839L39.316 82.0319C39.2287 82.0986 39.1601 82.1866 39.1166 82.2874C39.0732 82.3883 39.0564 82.4987 39.068 82.6079V88.7399C39.0769 89.0307 39.154 89.3154 39.2929 89.5711C39.4318 89.8267 39.6288 90.0462 39.868 90.2119C39.9448 90.267 40.0346 90.3011 40.1286 90.3109C40.2226 90.3208 40.3175 90.3059 40.404 90.2679C40.516 90.2079 40.924 89.9719 41.032 89.9079C41.1206 89.8422 41.1905 89.7545 41.2347 89.6535C41.2789 89.5524 41.2959 89.4416 41.284 89.3319V83.1999Z" fill="black"/>
<path d="M40.68 83.5319V89.6639C40.68 90.2159 40.316 90.4639 39.88 90.1959C39.6408 90.0302 39.4438 89.8107 39.3049 89.555C39.166 89.2994 39.0889 89.0147 39.08 88.7239V82.5919C39.08 82.0399 39.444 81.7919 39.88 82.0599C40.119 82.2258 40.3158 82.4453 40.4547 82.7009C40.5936 82.9565 40.6708 83.2411 40.68 83.5319Z" fill="#E4B1F0"/>
<path opacity="0.4" d="M96.776 20.9879C96.672 19.3879 95.472 18.7799 94.016 19.6199L44.616 48.1399C44.1796 48.4092 43.7904 48.7484 43.464 49.1439L38.992 46.6079C39.3864 45.8787 39.957 45.2599 40.652 44.8079L89.14 16.7999C90.672 15.9159 93.004 15.8319 94.34 16.6079C95.676 17.3839 96.688 19.2759 96.776 20.9879Z" fill="white"/>
<path d="M48.848 145.452C48.8417 145.455 48.8349 145.456 48.828 145.456C48.8211 145.456 48.8143 145.455 48.808 145.452C48.8055 145.448 48.8042 145.443 48.8042 145.438C48.8042 145.433 48.8055 145.428 48.808 145.424V145.22L48.18 145.584C48.18 145.584 48.152 145.584 48.14 145.584C48.1375 145.58 48.1362 145.575 48.1362 145.57C48.1362 145.565 48.1375 145.56 48.14 145.556V145.344C48.1397 145.309 48.1494 145.274 48.168 145.244L48.764 144.144L48.796 144.096C48.8094 144.085 48.8242 144.075 48.84 144.068L49.14 143.892C49.1463 143.889 49.1531 143.888 49.16 143.888C49.1668 143.888 49.1736 143.889 49.18 143.892C49.1822 143.897 49.1833 143.902 49.1833 143.908C49.1833 143.913 49.1822 143.919 49.18 143.924V144.692L49.352 144.592C49.3576 144.589 49.3637 144.588 49.37 144.588C49.3762 144.588 49.3824 144.589 49.388 144.592C49.3908 144.597 49.3923 144.602 49.3923 144.608C49.3923 144.614 49.3908 144.619 49.388 144.624V144.836C49.3923 144.85 49.3923 144.866 49.388 144.88C49.3792 144.896 49.3669 144.909 49.352 144.92L49.18 145.02V145.2C49.1827 145.214 49.1827 145.229 49.18 145.244C49.171 145.261 49.157 145.275 49.14 145.284L48.848 145.452ZM48.804 144.9V144.532L48.512 145.068L48.804 144.9Z" fill="white"/>
<path d="M50.032 144C50.0372 144.016 50.0372 144.032 50.032 144.048C50.0231 144.063 50.0108 144.075 49.996 144.084L49.732 144.236C49.7263 144.238 49.7202 144.24 49.714 144.24C49.7078 144.24 49.7016 144.238 49.696 144.236C49.6935 144.232 49.6922 144.227 49.6922 144.222C49.6922 144.217 49.6935 144.212 49.696 144.208V143.944C49.6908 143.928 49.6908 143.912 49.696 143.896C49.7048 143.881 49.7172 143.869 49.732 143.86L49.996 143.708C50.0016 143.705 50.0078 143.704 50.014 143.704C50.0202 143.704 50.0263 143.705 50.032 143.708C50.0348 143.713 50.0363 143.718 50.0363 143.724C50.0363 143.73 50.0348 143.735 50.032 143.74V144ZM50.032 144.7C50.0372 144.716 50.0372 144.732 50.032 144.748C50.0231 144.763 50.0108 144.775 49.996 144.784L49.732 144.936C49.7263 144.938 49.7202 144.94 49.714 144.94C49.7078 144.94 49.7016 144.938 49.696 144.936C49.6935 144.932 49.6922 144.927 49.6922 144.922C49.6922 144.917 49.6935 144.912 49.696 144.908V144.644C49.6908 144.628 49.6908 144.612 49.696 144.596C49.7048 144.581 49.7172 144.569 49.732 144.56L49.996 144.408C50.0016 144.405 50.0078 144.404 50.014 144.404C50.0202 144.404 50.0263 144.405 50.032 144.408C50.0348 144.413 50.0363 144.418 50.0363 144.424C50.0363 144.43 50.0348 144.435 50.032 144.44V144.7Z" fill="white"/>
<path d="M51.044 144.184C51.0377 144.187 51.0309 144.188 51.024 144.188C51.0171 144.188 51.0103 144.187 51.004 144.184C51.004 144.184 51.004 144.184 51.004 144.156V143.952L50.376 144.316C50.3697 144.318 50.3629 144.32 50.356 144.32C50.3491 144.32 50.3423 144.318 50.336 144.316C50.3332 144.311 50.3317 144.305 50.3317 144.3C50.3317 144.294 50.3332 144.289 50.336 144.284V144.072C50.3358 144.037 50.3455 144.002 50.364 143.972L50.96 142.872L50.992 142.824C51.0054 142.813 51.0202 142.803 51.036 142.796L51.336 142.62C51.3423 142.617 51.3491 142.615 51.356 142.615C51.3629 142.615 51.3697 142.617 51.376 142.62C51.3785 142.624 51.3798 142.629 51.3798 142.634C51.3798 142.639 51.3785 142.644 51.376 142.648V143.416L51.548 143.316C51.5537 143.313 51.5598 143.312 51.566 143.312C51.5722 143.312 51.5784 143.313 51.584 143.316C51.5868 143.321 51.5883 143.326 51.5883 143.332C51.5883 143.337 51.5868 143.343 51.584 143.348V143.56C51.5884 143.574 51.5884 143.589 51.584 143.604C51.5765 143.621 51.5639 143.635 51.548 143.644L51.376 143.744V143.948C51.3787 143.962 51.3787 143.977 51.376 143.992C51.367 144.009 51.3531 144.023 51.336 144.032L51.044 144.184ZM51 143.632V143.264L50.708 143.8L51 143.632Z" fill="white"/>
<path d="M51.968 143.6V143.572L52.4 142.316L51.804 142.66C51.804 142.66 51.776 142.66 51.764 142.66C51.752 142.66 51.764 142.66 51.764 142.632V142.42C51.7599 142.404 51.7599 142.388 51.764 142.372C51.7742 142.357 51.7879 142.344 51.804 142.336L52.76 141.784C52.7653 141.78 52.7716 141.778 52.778 141.778C52.7844 141.778 52.7907 141.78 52.796 141.784C52.796 141.784 52.796 141.784 52.796 141.812V142C52.791 142.041 52.7802 142.082 52.764 142.12L52.332 143.38C52.3256 143.397 52.3176 143.413 52.308 143.428C52.3002 143.443 52.2876 143.456 52.272 143.464L51.992 143.624C51.987 143.626 51.9816 143.628 51.976 143.628C51.9704 143.628 51.965 143.626 51.96 143.624L51.968 143.6Z" fill="white"/>
<path d="M88.26 122.212C88.259 122.294 88.2441 122.375 88.216 122.452C88.1805 122.534 88.1363 122.612 88.084 122.684C88.0264 122.759 87.9622 122.829 87.892 122.892C87.8228 122.955 87.7478 123.011 87.668 123.06C87.5953 123.099 87.5189 123.131 87.44 123.156C87.3767 123.169 87.3113 123.169 87.248 123.156C87.1949 123.146 87.1477 123.116 87.116 123.072C87.0813 123.018 87.0645 122.955 87.068 122.892C87.0619 122.851 87.0619 122.809 87.068 122.768C87.0763 122.728 87.0883 122.689 87.104 122.652L87.152 122.544L87.2 122.44L87.6 121.704C87.6 121.704 87.6 121.68 87.624 121.668C87.6313 121.651 87.6439 121.637 87.66 121.628L87.98 121.444C87.98 121.444 88 121.444 88.008 121.444C88.0098 121.448 88.0108 121.453 88.0108 121.458C88.0108 121.463 88.0098 121.467 88.008 121.472L87.748 121.976C87.8121 121.947 87.8792 121.926 87.948 121.912C88.0019 121.9 88.058 121.9 88.112 121.912C88.1581 121.926 88.1969 121.957 88.22 122C88.2599 122.063 88.2742 122.139 88.26 122.212ZM87.44 122.688C87.4386 122.7 87.4397 122.712 87.4432 122.724C87.4466 122.736 87.4523 122.746 87.46 122.756C87.4719 122.771 87.489 122.781 87.508 122.784C87.5332 122.788 87.5588 122.788 87.584 122.784L87.668 122.748L87.748 122.688C87.774 122.665 87.7981 122.639 87.82 122.612C87.841 122.585 87.8585 122.555 87.872 122.524C87.8771 122.495 87.8771 122.465 87.872 122.436C87.8796 122.414 87.8796 122.39 87.872 122.368C87.8586 122.353 87.8401 122.343 87.82 122.34C87.7963 122.334 87.7717 122.334 87.748 122.34C87.7196 122.348 87.6926 122.36 87.668 122.376L87.584 122.436L87.508 122.512C87.4881 122.539 87.472 122.569 87.46 122.6C87.4458 122.627 87.4389 122.657 87.44 122.688Z" fill="white"/>
<path d="M88.9 121.572C88.9052 121.587 88.9052 121.604 88.9 121.62C88.8898 121.635 88.876 121.647 88.86 121.656L88.6 121.808C88.5937 121.811 88.5869 121.812 88.58 121.812C88.5731 121.812 88.5663 121.811 88.56 121.808C88.5579 121.804 88.5568 121.799 88.5568 121.794C88.5568 121.789 88.5579 121.784 88.56 121.78V121.516C88.5614 121.498 88.5673 121.481 88.5771 121.467C88.5869 121.452 88.6003 121.44 88.616 121.432L88.876 121.28C88.8823 121.277 88.8891 121.276 88.896 121.276C88.9029 121.276 88.9096 121.277 88.916 121.28C88.9188 121.285 88.9203 121.29 88.9203 121.296C88.9203 121.301 88.9188 121.307 88.916 121.312L88.9 121.572ZM88.9 122.272C88.9052 122.287 88.9052 122.304 88.9 122.32C88.8898 122.335 88.876 122.347 88.86 122.356L88.6 122.508C88.5937 122.511 88.5869 122.512 88.58 122.512C88.5731 122.512 88.5663 122.511 88.56 122.508C88.5579 122.504 88.5568 122.499 88.5568 122.494C88.5568 122.489 88.5579 122.484 88.56 122.48V122.216C88.5614 122.198 88.5673 122.181 88.5771 122.167C88.5869 122.152 88.6003 122.14 88.616 122.132L88.876 121.98C88.8823 121.977 88.8891 121.976 88.896 121.976C88.9029 121.976 88.9096 121.977 88.916 121.98C88.9188 121.985 88.9203 121.99 88.9203 121.996C88.9203 122.001 88.9188 122.007 88.916 122.012L88.9 122.272Z" fill="white"/>
<path d="M90.248 120.148C90.2543 120.145 90.2611 120.144 90.268 120.144C90.2749 120.144 90.2817 120.145 90.288 120.148C90.2905 120.152 90.2918 120.157 90.2918 120.162C90.2918 120.167 90.2905 120.172 90.288 120.176V120.4C90.2932 120.416 90.2932 120.432 90.288 120.448C90.2816 120.465 90.2736 120.481 90.264 120.496L90.024 120.896C90.1051 120.865 90.195 120.865 90.276 120.896C90.34 120.92 90.372 120.984 90.372 121.088C90.372 121.246 90.3168 121.399 90.216 121.52C90.0964 121.669 89.9481 121.793 89.78 121.884C89.7015 121.934 89.6168 121.973 89.528 122C89.466 122.013 89.402 122.013 89.34 122C89.2952 121.995 89.2538 121.974 89.224 121.94C89.1948 121.907 89.1791 121.864 89.18 121.82C89.1766 121.808 89.1766 121.796 89.18 121.784C89.1874 121.771 89.1985 121.759 89.212 121.752L89.464 121.608C89.4726 121.6 89.4828 121.594 89.4938 121.591C89.5049 121.588 89.5165 121.587 89.528 121.588H89.576H89.648C89.691 121.579 89.7317 121.561 89.768 121.536C89.8283 121.505 89.8825 121.463 89.928 121.412C89.9471 121.395 89.9626 121.374 89.9736 121.35C89.9845 121.327 89.9908 121.302 89.992 121.276C89.992 121.228 89.992 121.208 89.928 121.208C89.8713 121.218 89.817 121.238 89.768 121.268L89.604 121.364C89.5977 121.367 89.5909 121.368 89.584 121.368C89.5772 121.368 89.5704 121.367 89.564 121.364C89.5619 121.36 89.5608 121.355 89.5608 121.35C89.5608 121.345 89.5619 121.34 89.564 121.336V121.164C89.5605 121.148 89.5605 121.132 89.564 121.116C89.5716 121.099 89.5809 121.083 89.592 121.068L89.804 120.728L89.28 121.032C89.2744 121.035 89.2683 121.036 89.262 121.036C89.2558 121.036 89.2496 121.035 89.244 121.032C89.244 121.032 89.244 121.032 89.244 121.004V120.8C89.2388 120.784 89.2388 120.768 89.244 120.752L89.28 120.716L90.248 120.148Z" fill="white"/>
<path d="M91.248 119.548C91.3283 119.499 91.4162 119.464 91.508 119.444C91.5665 119.425 91.6295 119.425 91.688 119.444C91.7359 119.466 91.7732 119.507 91.792 119.556C91.8169 119.614 91.8304 119.677 91.832 119.74C91.832 119.796 91.832 119.852 91.832 119.916C91.832 119.98 91.832 120.04 91.832 120.096C91.8278 120.173 91.8143 120.25 91.792 120.324C91.7683 120.407 91.7333 120.486 91.688 120.56C91.6374 120.64 91.5769 120.714 91.508 120.78C91.4304 120.855 91.3429 120.92 91.248 120.972C91.1699 121.023 91.0832 121.06 90.992 121.08C90.9335 121.099 90.8705 121.099 90.812 121.08C90.7641 121.057 90.7268 121.017 90.708 120.968C90.6817 120.91 90.6667 120.847 90.664 120.784C90.664 120.732 90.664 120.676 90.664 120.612C90.664 120.548 90.664 120.488 90.664 120.428C90.6693 120.35 90.6841 120.274 90.708 120.2C90.7317 120.117 90.7667 120.037 90.812 119.964C90.8626 119.883 90.9231 119.809 90.992 119.744C91.0689 119.668 91.1549 119.602 91.248 119.548ZM91.464 120.316C91.464 120.196 91.464 120.084 91.464 119.98C91.4666 119.952 91.4666 119.924 91.464 119.896C91.458 119.874 91.4454 119.854 91.428 119.84C91.4072 119.833 91.3848 119.833 91.364 119.84C91.3287 119.845 91.2947 119.858 91.264 119.876C91.2276 119.897 91.194 119.923 91.164 119.952C91.1392 119.979 91.1177 120.008 91.1 120.04C91.0856 120.07 91.0736 120.1 91.064 120.132C91.0601 120.165 91.0601 120.199 91.064 120.232C91.056 120.344 91.056 120.456 91.064 120.568C91.0592 120.596 91.0592 120.624 91.064 120.652C91.0691 120.673 91.082 120.692 91.1 120.704C91.1205 120.712 91.1435 120.712 91.164 120.704C91.2002 120.699 91.2346 120.685 91.264 120.664C91.3009 120.645 91.3346 120.621 91.364 120.592C91.3903 120.566 91.4132 120.536 91.432 120.504C91.4475 120.473 91.4596 120.441 91.468 120.408C91.4702 120.377 91.4689 120.346 91.464 120.316Z" fill="white"/>
<path d="M69.132 122.932V126C69.131 126.08 69.11 126.159 69.0708 126.229C69.0317 126.298 68.9757 126.357 68.908 126.4L68.316 126.744C68.192 126.816 68.096 126.744 68.096 126.616V123.536C68.0973 123.456 68.118 123.378 68.1563 123.309C68.1947 123.239 68.2495 123.18 68.316 123.136L68.912 122.792C69.032 122.736 69.132 122.8 69.132 122.932Z" fill="white"/>
<path d="M71.2 121.736V124.8C71.1977 124.879 71.1766 124.957 71.1383 125.027C71.1001 125.096 71.0458 125.156 70.98 125.2L70.384 125.544C70.264 125.612 70.164 125.544 70.164 125.416V122.332C70.1681 122.256 70.1902 122.182 70.2284 122.116C70.2667 122.05 70.32 121.994 70.384 121.952L70.98 121.608C71.104 121.536 71.2 121.6 71.2 121.736Z" fill="white"/>
<path d="M79.376 116.984V120.068C79.3747 120.147 79.354 120.225 79.3156 120.295C79.2773 120.365 79.2225 120.424 79.156 120.468L78.564 120.808C78.44 120.88 78.34 120.808 78.34 120.68V117.6C78.342 117.52 78.3635 117.442 78.4025 117.372C78.4416 117.303 78.497 117.243 78.564 117.2L79.156 116.856C79.276 116.8 79.376 116.844 79.376 116.984Z" fill="white"/>
<path d="M79.856 116.736V119.756C79.856 119.98 79.976 120.024 80.124 119.852L82.924 116.652C83.072 116.48 83.008 116.344 82.78 116.344H80.276C80.2225 116.341 80.169 116.349 80.1187 116.368C80.0683 116.386 80.0222 116.415 79.983 116.451C79.9438 116.488 79.9124 116.532 79.8906 116.581C79.8688 116.63 79.857 116.682 79.856 116.736Z" fill="white"/>
<path d="M61.264 127.44V130.52C61.2627 130.599 61.242 130.677 61.2036 130.747C61.1653 130.817 61.1105 130.876 61.044 130.92L60.452 131.264C60.328 131.332 60.232 131.264 60.232 131.136V128.056C60.2329 127.976 60.2535 127.898 60.2919 127.828C60.3302 127.759 60.3852 127.699 60.452 127.656L61.044 127.312C61.164 127.24 61.264 127.3 61.264 127.44Z" fill="white"/>
<path d="M59.836 131.328V128.184C59.836 127.944 59.704 127.896 59.544 128.076L56.568 131.44C56.408 131.62 56.472 131.768 56.716 131.768H59.396C59.4539 131.768 59.5114 131.757 59.565 131.736C59.6186 131.714 59.6674 131.681 59.7083 131.64C59.7493 131.599 59.7817 131.551 59.8036 131.497C59.8255 131.443 59.8365 131.386 59.836 131.328Z" fill="white"/>
<path d="M54.144 119.912C54.144 119.96 54.144 120.028 54.144 120.112V120.632C54.144 120.712 54.144 120.78 54.144 120.824C54.1495 120.896 54.167 120.966 54.196 121.032C54.2055 121.061 54.2206 121.087 54.2405 121.11C54.2605 121.133 54.2848 121.151 54.312 121.164C54.3794 121.187 54.4526 121.187 54.52 121.164C54.6292 121.141 54.7334 121.099 54.828 121.04C54.9376 120.979 55.0397 120.905 55.132 120.82C55.204 120.753 55.2696 120.679 55.328 120.6C55.3754 120.537 55.4144 120.469 55.444 120.396C55.472 120.328 55.492 120.268 55.508 120.216C55.5189 120.161 55.5392 120.108 55.568 120.06C55.5999 120.014 55.6425 119.977 55.692 119.952L56.404 119.552C56.4171 119.546 56.4315 119.542 56.446 119.542C56.4606 119.542 56.4749 119.546 56.488 119.552C56.4999 119.558 56.5097 119.567 56.5161 119.578C56.5225 119.59 56.5253 119.603 56.524 119.616C56.5166 119.823 56.4704 120.026 56.388 120.216C56.2944 120.441 56.1735 120.653 56.028 120.848C55.8705 121.062 55.6923 121.261 55.496 121.44C55.291 121.627 55.0671 121.792 54.828 121.932C54.6124 122.063 54.3775 122.159 54.132 122.216C53.9605 122.263 53.7795 122.263 53.608 122.216C53.466 122.17 53.347 122.071 53.276 121.94C53.1919 121.791 53.1452 121.623 53.14 121.452C53.14 121.308 53.14 121.148 53.14 120.98C53.14 120.812 53.14 120.644 53.14 120.484C53.1515 120.264 53.196 120.047 53.272 119.84C53.3568 119.608 53.4682 119.387 53.604 119.18C53.7557 118.955 53.9314 118.747 54.128 118.56C54.3398 118.359 54.5748 118.185 54.828 118.04C55.0352 117.913 55.2605 117.819 55.496 117.76C55.6694 117.713 55.8511 117.705 56.028 117.736C56.1702 117.762 56.2982 117.839 56.388 117.952C56.4809 118.081 56.5287 118.237 56.524 118.396C56.5224 118.433 56.5099 118.47 56.488 118.5C56.4663 118.534 56.4377 118.562 56.404 118.584L55.692 118.984C55.632 119.02 55.588 119.032 55.568 119.02C55.5372 119 55.5156 118.968 55.508 118.932C55.4911 118.895 55.4696 118.86 55.444 118.828C55.416 118.79 55.3745 118.764 55.328 118.756C55.2634 118.742 55.1966 118.742 55.132 118.756C55.0244 118.784 54.9219 118.829 54.828 118.888C54.7174 118.953 54.6141 119.029 54.52 119.116C54.4404 119.194 54.3706 119.281 54.312 119.376C54.2617 119.46 54.2227 119.55 54.196 119.644C54.1695 119.731 54.152 119.821 54.144 119.912Z" fill="white"/>
<path d="M57.228 118.104C57.2426 117.883 57.287 117.665 57.36 117.456C57.4431 117.223 57.5546 117.001 57.692 116.796C57.8434 116.573 58.0176 116.367 58.212 116.18C58.4274 115.977 58.6665 115.801 58.924 115.656C59.1421 115.523 59.3796 115.424 59.628 115.364C59.7997 115.319 59.9802 115.319 60.152 115.364C60.292 115.413 60.4097 115.511 60.484 115.64C60.5649 115.793 60.61 115.963 60.616 116.136C60.616 116.288 60.616 116.448 60.616 116.62C60.616 116.792 60.616 116.952 60.616 117.104C60.6014 117.325 60.557 117.543 60.484 117.752C60.4009 117.985 60.2894 118.206 60.152 118.412C60.0024 118.637 59.8265 118.844 59.628 119.028C59.4146 119.23 59.1784 119.405 58.924 119.552C58.7037 119.687 58.4634 119.787 58.212 119.848C58.0419 119.895 57.8621 119.895 57.692 119.848C57.552 119.798 57.4343 119.7 57.36 119.572C57.2791 119.419 57.234 119.249 57.228 119.076C57.228 118.932 57.228 118.772 57.228 118.604C57.228 118.436 57.22 118.264 57.228 118.104ZM59.628 117.668C59.628 117.6 59.628 117.528 59.628 117.444C59.628 117.36 59.628 117.28 59.628 117.196C59.628 117.112 59.628 117.036 59.628 116.96C59.628 116.884 59.628 116.816 59.628 116.756C59.6228 116.681 59.6038 116.608 59.572 116.54C59.544 116.484 59.4972 116.44 59.44 116.416C59.3722 116.395 59.2997 116.395 59.232 116.416C59.1288 116.44 59.0302 116.48 58.94 116.536C58.8324 116.595 58.7328 116.667 58.644 116.752C58.5654 116.829 58.4957 116.915 58.436 117.008C58.3816 117.093 58.3373 117.184 58.304 117.28C58.2757 117.372 58.257 117.468 58.248 117.564C58.2435 117.636 58.2435 117.708 58.248 117.78C58.248 117.86 58.248 117.94 58.248 118.024C58.248 118.108 58.248 118.188 58.248 118.268C58.2435 118.337 58.2435 118.407 58.248 118.476C58.2472 118.545 58.264 118.612 58.2969 118.672C58.3299 118.733 58.3778 118.783 58.436 118.82C58.548 118.872 58.712 118.82 58.94 118.708C59.1295 118.605 59.2911 118.458 59.411 118.279C59.5308 118.1 59.6053 117.894 59.628 117.68V117.668Z" fill="white"/>
<path d="M61.396 115.696C61.4106 115.475 61.455 115.257 61.528 115.048C61.612 114.817 61.7234 114.596 61.86 114.392C62.0106 114.167 62.1864 113.961 62.384 113.776C62.5981 113.572 62.8358 113.395 63.092 113.248C63.3094 113.114 63.5472 113.017 63.796 112.96C63.9672 112.911 64.1488 112.911 64.32 112.96C64.4615 113.007 64.58 113.105 64.652 113.236C64.7335 113.387 64.7787 113.556 64.784 113.728C64.784 113.88 64.784 114.044 64.784 114.212C64.784 114.38 64.784 114.544 64.784 114.696C64.7694 114.917 64.725 115.135 64.652 115.344C64.569 115.578 64.4575 115.801 64.32 116.008C64.1694 116.233 63.9936 116.439 63.796 116.624C63.5825 116.824 63.3462 116.999 63.092 117.144C62.8727 117.279 62.6339 117.378 62.384 117.44C62.2125 117.487 62.0315 117.487 61.86 117.44C61.7204 117.387 61.6032 117.289 61.528 117.16C61.4471 117.007 61.402 116.837 61.396 116.664C61.396 116.52 61.396 116.364 61.396 116.192C61.396 116.02 61.392 115.856 61.396 115.696ZM63.796 115.26C63.796 115.192 63.796 115.12 63.796 115.036C63.796 114.952 63.796 114.872 63.796 114.792C63.796 114.712 63.796 114.628 63.796 114.552C63.796 114.476 63.796 114.408 63.796 114.348C63.7898 114.273 63.7709 114.2 63.74 114.132C63.7101 114.073 63.6606 114.026 63.6 114C63.5323 113.979 63.4598 113.979 63.392 114C63.2888 114.024 63.1902 114.064 63.1 114.12C62.9938 114.182 62.8945 114.256 62.804 114.34C62.7246 114.415 62.6548 114.5 62.596 114.592C62.5405 114.677 62.4974 114.77 62.468 114.868C62.4366 114.958 62.4164 115.052 62.408 115.148C62.4038 115.22 62.4038 115.292 62.408 115.364C62.408 115.444 62.408 115.524 62.408 115.608C62.408 115.692 62.408 115.772 62.408 115.852C62.4034 115.921 62.4034 115.991 62.408 116.06C62.4072 116.129 62.424 116.196 62.457 116.256C62.4899 116.317 62.5378 116.367 62.596 116.404C62.708 116.46 62.876 116.424 63.1 116.292C63.2895 116.189 63.4511 116.042 63.571 115.863C63.6909 115.684 63.7653 115.478 63.788 115.264L63.796 115.26Z" fill="white"/>
<path d="M68.348 113.2C68.3644 113.193 68.3821 113.189 68.4 113.189C68.4179 113.189 68.4357 113.193 68.452 113.2C68.4666 113.207 68.4787 113.219 68.4866 113.233C68.4944 113.247 68.4977 113.264 68.496 113.28V113.856C68.4929 113.902 68.4777 113.946 68.452 113.984C68.4258 114.026 68.3902 114.062 68.348 114.088L65.836 115.536C65.82 115.544 65.8021 115.549 65.784 115.549C65.7659 115.549 65.7481 115.544 65.732 115.536C65.704 115.536 65.692 115.5 65.692 115.46V111.952C65.6933 111.906 65.7072 111.862 65.732 111.824C65.7593 111.783 65.7947 111.747 65.836 111.72L66.548 111.32C66.5642 111.312 66.582 111.308 66.6 111.308C66.6181 111.308 66.6359 111.312 66.652 111.32C66.6667 111.326 66.679 111.337 66.6869 111.35C66.6949 111.364 66.6981 111.38 66.696 111.396V114.196L68.348 113.2Z" fill="white"/>
<path d="M71.936 108.14C72.1352 108.02 72.3508 107.93 72.576 107.872C72.739 107.829 72.9088 107.818 73.076 107.84C73.2005 107.855 73.3168 107.91 73.408 107.996C73.4856 108.073 73.53 108.178 73.532 108.288C73.53 108.325 73.519 108.36 73.5 108.392C73.4797 108.425 73.4524 108.454 73.42 108.476L72.708 108.876C72.6717 108.9 72.6309 108.916 72.588 108.924C72.5563 108.93 72.5237 108.93 72.492 108.924L72.44 108.9C72.4084 108.886 72.3745 108.878 72.34 108.876C72.2846 108.877 72.2295 108.885 72.176 108.9C72.0928 108.928 72.0125 108.964 71.936 109.008C71.868 109.048 71.804 109.092 71.74 109.136C71.676 109.18 71.62 109.232 71.572 109.276C71.5261 109.323 71.4859 109.375 71.452 109.432C71.4216 109.48 71.4049 109.535 71.404 109.592C71.4015 109.613 71.4051 109.634 71.4143 109.653C71.4235 109.672 71.438 109.689 71.456 109.7C71.5135 109.716 71.5745 109.716 71.632 109.7C71.742 109.675 71.8503 109.643 71.956 109.604L72.452 109.416C72.6218 109.351 72.7972 109.301 72.976 109.268C73.098 109.237 73.226 109.237 73.348 109.268C73.4436 109.303 73.5223 109.373 73.568 109.464C73.6213 109.59 73.6458 109.727 73.64 109.864C73.6389 110.06 73.5966 110.253 73.516 110.432C73.4263 110.637 73.3092 110.83 73.168 111.004C73.0094 111.203 72.8312 111.385 72.636 111.548C72.4265 111.724 72.2016 111.88 71.964 112.016C71.7548 112.144 71.5286 112.243 71.292 112.308C71.1221 112.358 70.9438 112.373 70.768 112.352C70.6386 112.339 70.5175 112.282 70.424 112.192C70.3389 112.102 70.2916 111.983 70.292 111.86C70.2936 111.822 70.3061 111.786 70.328 111.756C70.3471 111.722 70.3746 111.693 70.408 111.672L71.12 111.272C71.1546 111.247 71.1941 111.229 71.236 111.22C71.265 111.214 71.295 111.214 71.324 111.22L71.388 111.252C71.4259 111.27 71.4664 111.282 71.508 111.288C71.57 111.292 71.6323 111.285 71.692 111.268C71.7882 111.242 71.8799 111.201 71.964 111.148C72.1361 111.053 72.2971 110.939 72.444 110.808C72.4981 110.768 72.5435 110.718 72.5772 110.66C72.611 110.603 72.6323 110.538 72.64 110.472C72.6424 110.45 72.6363 110.427 72.6229 110.41C72.6095 110.392 72.5899 110.38 72.568 110.376C72.4964 110.37 72.4245 110.378 72.356 110.4C72.2337 110.433 72.1135 110.473 71.996 110.52L71.476 110.708C71.2283 110.833 70.9421 110.859 70.676 110.78C70.504 110.696 70.416 110.496 70.416 110.184C70.42 110.009 70.4566 109.837 70.524 109.676C70.6027 109.481 70.7062 109.297 70.832 109.128C70.9722 108.93 71.1346 108.749 71.316 108.588C71.5076 108.419 71.7153 108.269 71.936 108.14Z" fill="white"/>
<path d="M74.332 108.228C74.3466 108.007 74.391 107.789 74.464 107.58C74.5463 107.348 74.6579 107.127 74.796 106.924C75.1122 106.453 75.5323 106.062 76.024 105.78C76.2427 105.646 76.4819 105.549 76.732 105.492C76.9032 105.443 77.0848 105.443 77.256 105.492C77.3964 105.539 77.5136 105.638 77.584 105.768C77.6692 105.92 77.7159 106.09 77.72 106.264C77.72 106.412 77.72 106.576 77.72 106.744C77.72 106.912 77.72 107.076 77.72 107.228C77.7063 107.449 77.6604 107.668 77.584 107.876C77.5024 108.11 77.3922 108.333 77.256 108.54C76.9394 109.009 76.5175 109.398 76.024 109.676C75.8056 109.812 75.5665 109.912 75.316 109.972C75.1458 110.019 74.9661 110.019 74.796 109.972C74.655 109.922 74.537 109.822 74.464 109.692C74.3831 109.539 74.338 109.369 74.332 109.196C74.332 109.052 74.332 108.896 74.332 108.724C74.332 108.552 74.324 108.4 74.332 108.228ZM76.732 107.792C76.732 107.728 76.732 107.652 76.732 107.568C76.732 107.484 76.732 107.404 76.732 107.324C76.732 107.244 76.732 107.16 76.732 107.084C76.732 107.008 76.732 106.94 76.732 106.88C76.7264 106.805 76.706 106.731 76.672 106.664C76.6455 106.609 76.6001 106.565 76.544 106.54C76.4759 106.521 76.4041 106.521 76.336 106.54C76.2315 106.564 76.1316 106.604 76.04 106.66C75.935 106.722 75.8371 106.796 75.748 106.88C75.6686 106.955 75.5987 107.04 75.54 107.132C75.4848 107.218 75.4405 107.311 75.408 107.408C75.3779 107.499 75.3591 107.593 75.352 107.688C75.3478 107.76 75.3478 107.832 75.352 107.904C75.352 107.984 75.352 108.068 75.352 108.148C75.352 108.228 75.352 108.312 75.352 108.392C75.3474 108.461 75.3474 108.531 75.352 108.6C75.3512 108.668 75.368 108.736 75.401 108.796C75.4339 108.857 75.4818 108.907 75.54 108.944C75.648 109 75.816 108.964 76.04 108.832C76.2449 108.723 76.4174 108.561 76.54 108.364C76.6405 108.189 76.7006 107.993 76.716 107.792H76.732Z" fill="white"/>
<path d="M81.096 106.708C81.0743 106.724 81.0497 106.735 81.0236 106.741C80.9975 106.748 80.9704 106.748 80.944 106.744C80.9176 106.74 80.8927 106.729 80.872 106.712L79.628 105.572V107.408C79.6274 107.454 79.612 107.499 79.584 107.536C79.5592 107.578 79.525 107.614 79.484 107.64L78.772 108.04C78.7558 108.048 78.738 108.052 78.72 108.052C78.7019 108.052 78.6841 108.048 78.668 108.04C78.6533 108.034 78.641 108.023 78.633 108.009C78.6251 107.996 78.6219 107.98 78.624 107.964V104.48C78.6271 104.434 78.6423 104.39 78.668 104.352C78.6942 104.31 78.7298 104.274 78.772 104.248L79.336 103.924C79.3569 103.908 79.3808 103.897 79.4062 103.891C79.4317 103.884 79.4582 103.883 79.484 103.888C79.5118 103.891 79.5381 103.902 79.56 103.92L80.8 105.06V103.224C80.8025 103.178 80.8177 103.134 80.844 103.096C80.8702 103.054 80.9058 103.018 80.948 102.992L81.66 102.592C81.676 102.583 81.6939 102.579 81.712 102.579C81.7301 102.579 81.7479 102.583 81.764 102.592C81.792 102.592 81.804 102.628 81.804 102.668V106.176C81.8026 106.221 81.7888 106.266 81.764 106.304C81.7367 106.345 81.7013 106.381 81.66 106.408L81.096 106.708Z" fill="white"/>
<path d="M84.4 101.816C84.2864 101.88 84.1815 101.958 84.088 102.048C84.0106 102.125 83.9422 102.211 83.884 102.304C83.8345 102.388 83.7956 102.478 83.768 102.572C83.7433 102.66 83.7259 102.749 83.716 102.84C83.716 102.892 83.716 102.96 83.716 103.044V103.304C83.716 103.392 83.716 103.48 83.716 103.564C83.716 103.648 83.716 103.708 83.716 103.756C83.7219 103.828 83.7394 103.898 83.768 103.964C83.7896 104.02 83.8307 104.067 83.884 104.096C83.9496 104.124 84.0222 104.131 84.092 104.116C84.2 104.093 84.3039 104.054 84.4 104C84.4929 103.946 84.5812 103.884 84.664 103.816C84.7441 103.748 84.8165 103.672 84.88 103.588C84.9424 103.505 84.9922 103.413 85.028 103.316C85.065 103.218 85.084 103.113 85.084 103.008L84.628 103.272C84.6118 103.28 84.594 103.284 84.576 103.284C84.5579 103.284 84.5401 103.28 84.524 103.272C84.5093 103.266 84.497 103.255 84.4891 103.241C84.4811 103.228 84.4779 103.212 84.48 103.196V102.62C84.4825 102.574 84.4977 102.53 84.524 102.492C84.5491 102.449 84.5849 102.413 84.628 102.388L85.94 101.628C85.9563 101.621 85.9741 101.617 85.992 101.617C86.0099 101.617 86.0276 101.621 86.044 101.628C86.0586 101.635 86.0706 101.647 86.0785 101.661C86.0864 101.675 86.0897 101.692 86.088 101.708V102.4C86.0864 102.638 86.0417 102.874 85.956 103.096C85.867 103.336 85.7473 103.563 85.6 103.772C85.4434 103.993 85.2637 104.197 85.064 104.38C84.8602 104.564 84.6377 104.726 84.4 104.864C84.184 104.998 83.9475 105.095 83.7 105.152C83.5285 105.199 83.3475 105.199 83.176 105.152C83.0355 105.103 82.9174 105.005 82.844 104.876C82.76 104.725 82.7147 104.556 82.712 104.384C82.712 104.24 82.712 104.084 82.712 103.912C82.712 103.74 82.712 103.58 82.712 103.42C82.7197 103.2 82.7629 102.982 82.84 102.776C82.9245 102.543 83.0374 102.321 83.176 102.116C83.3242 101.888 83.5002 101.68 83.7 101.496C83.9108 101.293 84.146 101.117 84.4 100.972C84.6124 100.843 84.843 100.748 85.084 100.688C85.2539 100.651 85.43 100.651 85.6 100.688C85.7254 100.712 85.8401 100.775 85.928 100.868C86.0064 100.955 86.0529 101.067 86.06 101.184C86.0612 101.22 86.0499 101.255 86.028 101.284C86.0049 101.319 85.975 101.349 85.94 101.372L85.22 101.772C85.164 101.804 85.12 101.812 85.092 101.796L85 101.752C84.9393 101.713 84.8684 101.692 84.796 101.692C84.6557 101.7 84.5197 101.742 84.4 101.816Z" fill="white"/>
<path d="M62.024 120.908C62.0216 120.933 62.0216 120.959 62.024 120.984V121.2C62.0215 121.224 62.0215 121.248 62.024 121.272C62.0194 121.3 62.0194 121.328 62.024 121.356C62.0346 121.376 62.0514 121.393 62.072 121.404C62.0969 121.411 62.1231 121.411 62.148 121.404C62.1885 121.393 62.2275 121.377 62.264 121.356C62.306 121.333 62.345 121.305 62.38 121.272C62.4086 121.247 62.4341 121.219 62.456 121.188L62.5 121.112L62.524 121.044C62.5276 121.023 62.5344 121.003 62.544 120.984C62.5565 120.967 62.5729 120.953 62.592 120.944L62.86 120.788C62.8704 120.784 62.8816 120.784 62.892 120.788C62.8938 120.792 62.8947 120.796 62.8947 120.8C62.8947 120.804 62.8938 120.808 62.892 120.812C62.8873 120.89 62.8697 120.967 62.84 121.04C62.8047 121.124 62.759 121.203 62.704 121.276C62.6437 121.358 62.5754 121.435 62.5 121.504C62.4228 121.574 62.3383 121.636 62.248 121.688C62.1665 121.738 62.0773 121.775 61.984 121.796C61.9197 121.812 61.8523 121.812 61.788 121.796C61.7337 121.776 61.6883 121.738 61.66 121.688C61.6294 121.631 61.613 121.568 61.612 121.504C61.612 121.448 61.612 121.388 61.612 121.324C61.612 121.26 61.612 121.2 61.612 121.136C61.6133 121.054 61.6295 120.972 61.66 120.896C61.6922 120.807 61.7352 120.722 61.788 120.644C61.8496 120.555 61.9207 120.473 62 120.4C62.081 120.326 62.1695 120.26 62.264 120.204C62.3423 120.157 62.4273 120.122 62.516 120.1C62.5831 120.084 62.6529 120.084 62.72 120.1C62.7738 120.108 62.8224 120.137 62.856 120.18C62.8893 120.23 62.9074 120.288 62.908 120.348C62.9106 120.361 62.9106 120.375 62.908 120.388L62.876 120.42L62.608 120.576C62.584 120.576 62.568 120.576 62.56 120.576C62.5547 120.572 62.5502 120.567 62.5467 120.562C62.5433 120.556 62.541 120.55 62.54 120.544L62.516 120.504C62.5051 120.49 62.4895 120.48 62.472 120.476C62.447 120.47 62.421 120.47 62.396 120.476C62.3554 120.487 62.3164 120.503 62.28 120.524C62.2383 120.549 62.1994 120.578 62.164 120.612C62.134 120.641 62.1084 120.675 62.088 120.712C62.0664 120.742 62.0502 120.776 62.04 120.812C62.0311 120.843 62.0257 120.875 62.024 120.908Z" fill="white"/>
<path d="M63.2 120.224C63.2062 120.141 63.2237 120.059 63.252 119.98C63.2835 119.892 63.3251 119.807 63.376 119.728C63.4346 119.644 63.5016 119.566 63.576 119.496C63.6562 119.419 63.7464 119.353 63.844 119.3C63.9253 119.248 64.0145 119.211 64.108 119.188C64.1736 119.171 64.2424 119.171 64.308 119.188C64.36 119.208 64.4037 119.244 64.432 119.292C64.4646 119.349 64.4825 119.414 64.484 119.48C64.484 119.536 64.484 119.6 64.484 119.664C64.484 119.728 64.484 119.788 64.484 119.848C64.4795 119.932 64.462 120.014 64.432 120.092C64.4005 120.18 64.3589 120.265 64.308 120.344C64.1869 120.519 64.0284 120.665 63.844 120.772C63.7611 120.823 63.6706 120.861 63.576 120.884C63.5106 120.902 63.4414 120.902 63.376 120.884C63.3229 120.864 63.2788 120.826 63.252 120.776C63.2201 120.72 63.2022 120.657 63.2 120.592C63.2 120.536 63.2 120.476 63.2 120.412C63.2 120.348 63.2 120.284 63.2 120.224ZM64.104 120.06C64.104 120.036 64.104 120.008 64.104 119.976V119.792C64.104 119.764 64.104 119.736 64.104 119.716C64.1072 119.688 64.1072 119.66 64.104 119.632C64.0908 119.612 64.073 119.596 64.052 119.584C64.0257 119.578 63.9983 119.578 63.972 119.584C63.9338 119.595 63.8974 119.611 63.864 119.632C63.8238 119.654 63.7863 119.681 63.752 119.712C63.7219 119.741 63.695 119.773 63.672 119.808C63.6528 119.841 63.6367 119.876 63.624 119.912C63.6122 119.947 63.6042 119.983 63.6 120.02C63.6 120.044 63.6 120.072 63.6 120.1V120.284C63.6 120.316 63.6 120.34 63.6 120.364C63.6003 120.39 63.607 120.416 63.6195 120.439C63.6321 120.462 63.6501 120.482 63.672 120.496C63.716 120.496 63.776 120.496 63.864 120.452C63.941 120.411 64.0058 120.35 64.052 120.276C64.0801 120.208 64.0937 120.134 64.092 120.06H64.104Z" fill="white"/>
<path d="M64.768 119.312C64.7731 119.229 64.7893 119.147 64.816 119.068C64.8482 118.98 64.8912 118.897 64.944 118.82C65.0001 118.735 65.0659 118.657 65.14 118.588C65.2198 118.509 65.31 118.442 65.408 118.388C65.4903 118.336 65.581 118.298 65.676 118.276C65.7403 118.26 65.8077 118.26 65.872 118.276C65.9263 118.295 65.9717 118.334 66 118.384C66.0312 118.442 66.0477 118.506 66.048 118.572C66.048 118.628 66.048 118.688 66.048 118.752C66.048 118.816 66.048 118.876 66.048 118.936C66.0433 119.019 66.0271 119.101 66 119.18C65.9679 119.269 65.9249 119.353 65.872 119.432C65.8159 119.517 65.7501 119.594 65.676 119.664C65.5944 119.74 65.5045 119.807 65.408 119.864C65.3253 119.915 65.2347 119.951 65.14 119.972C65.0763 119.992 65.0077 119.992 64.944 119.972C64.8902 119.954 64.8448 119.917 64.816 119.868C64.786 119.81 64.7696 119.745 64.768 119.68C64.768 119.624 64.768 119.564 64.768 119.5C64.768 119.436 64.764 119.376 64.768 119.312ZM65.668 119.148C65.6702 119.12 65.6702 119.092 65.668 119.064C65.67 119.033 65.67 119.002 65.668 118.972C65.6701 118.941 65.6701 118.91 65.668 118.88C65.6701 118.855 65.6701 118.829 65.668 118.804C65.6745 118.776 65.6745 118.747 65.668 118.72C65.6574 118.7 65.6405 118.685 65.62 118.676C65.594 118.668 65.566 118.668 65.54 118.676C65.5003 118.684 65.4624 118.699 65.428 118.72C65.3868 118.742 65.3491 118.771 65.316 118.804C65.2853 118.831 65.2595 118.864 65.24 118.9C65.2172 118.932 65.1997 118.967 65.188 119.004C65.182 119.038 65.182 119.073 65.188 119.108C65.1858 119.136 65.1858 119.164 65.188 119.192C65.1859 119.222 65.1859 119.253 65.188 119.284C65.186 119.314 65.186 119.345 65.188 119.376C65.1858 119.401 65.1858 119.427 65.188 119.452C65.1862 119.478 65.192 119.505 65.2048 119.528C65.2175 119.552 65.2367 119.571 65.26 119.584C65.3 119.604 65.364 119.584 65.448 119.54C65.525 119.499 65.5898 119.438 65.636 119.364C65.665 119.296 65.676 119.221 65.668 119.148Z" fill="white"/>
<path d="M67.4 118.368C67.4057 118.365 67.4118 118.364 67.418 118.364C67.4242 118.364 67.4303 118.365 67.436 118.368C67.4385 118.373 67.4398 118.378 67.4398 118.384C67.4398 118.389 67.4385 118.395 67.436 118.4V118.616C67.4407 118.632 67.4407 118.648 67.436 118.664C67.4285 118.681 67.4159 118.695 67.4 118.704L66.448 119.252C66.4419 119.255 66.435 119.257 66.428 119.257C66.421 119.257 66.4141 119.255 66.408 119.252C66.4055 119.248 66.4042 119.243 66.4042 119.238C66.4042 119.233 66.4055 119.228 66.408 119.224V117.896C66.4028 117.88 66.4028 117.863 66.408 117.848C66.417 117.831 66.431 117.817 66.448 117.808L66.716 117.652C66.716 117.652 66.744 117.652 66.756 117.652C66.768 117.652 66.756 117.652 66.756 117.68V118.732L67.4 118.368Z" fill="white"/>
<path d="M68.932 116.376C68.96 116.376 68.98 116.352 68.992 116.376C69.004 116.4 69.02 116.376 69.024 116.404L69.472 117.44V117.464C69.476 117.477 69.476 117.491 69.472 117.504L69.44 117.536L69.18 117.688C69.1607 117.695 69.1393 117.695 69.12 117.688C69.12 117.688 69.12 117.688 69.12 117.664L69.064 117.528L68.516 117.844L68.46 118.048C68.4543 118.064 68.4462 118.079 68.436 118.092C68.4214 118.113 68.4022 118.131 68.38 118.144L68.12 118.296C68.1096 118.3 68.0983 118.3 68.088 118.296C68.0859 118.292 68.0848 118.288 68.0848 118.284C68.0848 118.28 68.0859 118.276 68.088 118.272C68.0849 118.26 68.0849 118.248 68.088 118.236L68.536 116.684C68.5408 116.661 68.5504 116.639 68.564 116.62C68.5792 116.595 68.6015 116.576 68.628 116.564L68.932 116.376ZM68.6 117.464L68.932 117.272L68.764 116.872L68.6 117.464Z" fill="white"/>
<path d="M70.756 116.432C70.7621 116.429 70.769 116.427 70.776 116.427C70.783 116.427 70.7899 116.429 70.796 116.432C70.7981 116.436 70.7992 116.441 70.7992 116.446C70.7992 116.451 70.7981 116.456 70.796 116.46V116.68C70.7995 116.696 70.7995 116.712 70.796 116.728C70.7848 116.743 70.7713 116.757 70.756 116.768L69.804 117.316C69.804 117.316 69.776 117.316 69.764 117.316C69.7616 117.312 69.7603 117.307 69.7603 117.302C69.7603 117.297 69.7616 117.292 69.764 117.288V115.96C69.7612 115.944 69.7612 115.928 69.764 115.912C69.7742 115.897 69.7879 115.885 69.804 115.876L70.072 115.72C70.0783 115.717 70.0851 115.716 70.092 115.716C70.0989 115.716 70.1057 115.717 70.112 115.72C70.112 115.72 70.112 115.72 70.112 115.752V116.8L70.756 116.432Z" fill="white"/>
<path d="M71.692 115.856H71.664L71.472 115.624V116.308C71.4744 116.324 71.4744 116.34 71.472 116.356C71.4607 116.37 71.4472 116.382 71.432 116.392L71.16 116.548C71.1543 116.55 71.1482 116.552 71.142 116.552C71.1358 116.552 71.1297 116.55 71.124 116.548C71.124 116.548 71.124 116.548 71.124 116.516V115.2C71.1188 115.184 71.1188 115.167 71.124 115.152C71.1315 115.135 71.1441 115.121 71.16 115.112L71.4 114.972C71.4267 114.956 71.4467 114.956 71.46 114.972C71.46 114.972 71.484 114.972 71.488 114.992L71.82 115.368L72.156 114.604C72.1622 114.587 72.1703 114.571 72.18 114.556C72.1976 114.533 72.2193 114.514 72.244 114.5L72.48 114.36C72.4863 114.357 72.4931 114.355 72.5 114.355C72.5069 114.355 72.5137 114.357 72.52 114.36C72.52 114.36 72.52 114.36 72.52 114.388V115.716C72.5252 115.731 72.5252 115.748 72.52 115.764C72.5098 115.78 72.4962 115.794 72.48 115.804L72.212 115.96C72.212 115.96 72.184 115.96 72.172 115.96C72.16 115.96 72.172 115.96 72.172 115.932V115.252L71.98 115.704L71.952 115.752C71.9401 115.77 71.9235 115.786 71.904 115.796L71.772 115.872C71.7591 115.88 71.7437 115.882 71.7289 115.88C71.714 115.877 71.7009 115.868 71.692 115.856Z" fill="white"/>
<path d="M72.964 115.484C72.9584 115.487 72.9523 115.488 72.946 115.488C72.9398 115.488 72.9336 115.487 72.928 115.484C72.928 115.484 72.928 115.484 72.928 115.456V114.128C72.9228 114.112 72.9228 114.096 72.928 114.08C72.9367 114.064 72.9491 114.05 72.964 114.04L73.628 113.66C73.698 113.612 73.7769 113.58 73.86 113.564C73.9096 113.549 73.9624 113.549 74.012 113.564C74.0486 113.584 74.0769 113.617 74.092 113.656C74.1083 113.701 74.1164 113.748 74.116 113.796C74.1201 113.833 74.1201 113.871 74.116 113.908C74.116 113.94 74.116 113.972 74.084 114C74.0724 114.026 74.059 114.052 74.044 114.076L74.012 114.124C74.0347 114.124 74.057 114.13 74.0767 114.141C74.0964 114.152 74.1127 114.168 74.124 114.188C74.1493 114.236 74.1604 114.29 74.156 114.344C74.1554 114.405 74.1473 114.465 74.132 114.524C74.1132 114.59 74.0863 114.653 74.052 114.712C74.0099 114.779 73.9603 114.841 73.904 114.896C73.8381 114.961 73.7642 115.018 73.684 115.064L72.964 115.484ZM73.736 114.036C73.7375 114.023 73.7352 114.009 73.7296 113.997C73.724 113.985 73.7151 113.975 73.704 113.968C73.6872 113.965 73.67 113.965 73.6534 113.97C73.6369 113.974 73.6214 113.981 73.608 113.992L73.292 114.176V114.4L73.608 114.216C73.6461 114.196 73.6789 114.167 73.704 114.132C73.7227 114.103 73.7338 114.07 73.736 114.036ZM73.292 114.976L73.628 114.78C73.6693 114.759 73.7039 114.727 73.728 114.688C73.7502 114.655 73.7626 114.616 73.764 114.576C73.7656 114.562 73.763 114.549 73.7566 114.536C73.7501 114.524 73.7402 114.514 73.728 114.508C73.7106 114.505 73.6928 114.506 73.6756 114.51C73.6584 114.514 73.6422 114.521 73.628 114.532L73.292 114.724V114.976Z" fill="white"/>
<path d="M75.656 112.492C75.6617 112.489 75.6678 112.488 75.674 112.488C75.6802 112.488 75.6863 112.489 75.692 112.492C75.698 112.495 75.703 112.499 75.7065 112.505C75.7101 112.511 75.712 112.517 75.712 112.524V113.324C75.7116 113.418 75.6954 113.511 75.664 113.6C75.6352 113.691 75.592 113.778 75.536 113.856C75.4786 113.938 75.4129 114.015 75.34 114.084C75.2614 114.152 75.177 114.214 75.088 114.268C75.0071 114.314 74.9212 114.35 74.832 114.376C74.7664 114.393 74.6976 114.393 74.632 114.376C74.5778 114.356 74.5333 114.316 74.508 114.264C74.4727 114.195 74.4561 114.117 74.46 114.04V113.22C74.4565 113.204 74.4565 113.188 74.46 113.172C74.4702 113.156 74.4839 113.142 74.5 113.132L74.768 112.976C74.7743 112.973 74.7811 112.972 74.788 112.972C74.7949 112.972 74.8017 112.973 74.808 112.976C74.8105 112.98 74.8118 112.985 74.8118 112.99C74.8118 112.995 74.8105 113 74.808 113.004V113.804C74.808 113.888 74.828 113.94 74.868 113.964C74.908 113.988 74.972 113.964 75.056 113.928C75.1298 113.885 75.1917 113.825 75.236 113.752C75.2765 113.683 75.2986 113.604 75.3 113.524V112.724C75.2948 112.708 75.2948 112.691 75.3 112.676C75.3075 112.659 75.3201 112.645 75.336 112.636L75.656 112.492Z" fill="white"/>
<path d="M76.688 112.972C76.6772 112.968 76.6676 112.961 76.66 112.952L76.468 112.724V113.408C76.4715 113.424 76.4715 113.44 76.468 113.456C76.4592 113.471 76.4468 113.483 76.432 113.492L76.16 113.648C76.1543 113.651 76.1482 113.652 76.142 113.652C76.1358 113.652 76.1297 113.651 76.124 113.648C76.124 113.648 76.124 113.648 76.124 113.616V112.292C76.1192 112.275 76.1192 112.257 76.124 112.24C76.1328 112.225 76.1452 112.213 76.16 112.204L76.4 112.064C76.4293 112.048 76.4493 112.048 76.46 112.064H76.488L76.82 112.444L77.152 111.68C77.1634 111.665 77.1728 111.649 77.18 111.632C77.1976 111.609 77.2193 111.59 77.244 111.576L77.48 111.436C77.4863 111.433 77.4931 111.432 77.5 111.432C77.5069 111.432 77.5137 111.433 77.52 111.436C77.52 111.436 77.52 111.436 77.52 111.464V112.8C77.5252 112.816 77.5252 112.832 77.52 112.848C77.5098 112.864 77.4962 112.878 77.48 112.888L77.212 113.044C77.2057 113.047 77.1989 113.048 77.192 113.048C77.1851 113.048 77.1783 113.047 77.172 113.044C77.172 113.044 77.172 113.044 77.172 113.016V112.336L76.98 112.784L76.952 112.836C76.9401 112.855 76.9235 112.87 76.904 112.88L76.772 112.956C76.7676 112.963 76.7619 112.968 76.7553 112.973C76.7486 112.977 76.7412 112.98 76.7334 112.982C76.7255 112.983 76.7175 112.983 76.7097 112.981C76.7019 112.98 76.6946 112.977 76.688 112.972Z" fill="white"/>
<path opacity="0.3" d="M55.368 139.812L84.508 122.988C84.984 122.712 85.372 122.908 85.372 123.424C85.351 123.715 85.2619 123.997 85.1118 124.247C84.9617 124.497 84.7549 124.708 84.508 124.864L55.368 141.688C54.888 141.964 54.5 141.768 54.5 141.248C54.5217 140.957 54.6117 140.676 54.7625 140.426C54.9133 140.177 55.1207 139.966 55.368 139.812Z" fill="white"/>
<path d="M55.368 139.812L77.248 127.176C77.728 126.9 78.116 127.096 78.116 127.616C78.0943 127.907 78.0043 128.188 77.8535 128.438C77.7027 128.687 77.4953 128.898 77.248 129.052L55.368 141.688C54.888 141.964 54.5 141.768 54.5 141.248C54.5217 140.957 54.6117 140.676 54.7625 140.426C54.9133 140.177 55.1207 139.966 55.368 139.812Z" fill="white"/>
<path d="M83.484 48.428L57.42 63.424V93.128C56.7793 93.2369 56.1638 93.4619 55.604 93.792C52.6 95.524 50.164 99.744 50.164 103.216C50.164 105.076 50.872 106.336 51.984 106.844L53.9 107.768C54.876 108.296 56.208 108.204 57.68 107.368C60.684 105.632 63.12 101.412 63.12 97.944V70.744L79.868 61.104V80.256C79.2259 80.3642 78.609 80.5893 78.048 80.92C75.044 82.656 72.608 86.872 72.608 90.344C72.608 92.204 73.312 93.46 74.424 93.968L76.288 94.868C77.272 95.428 78.624 95.344 80.12 94.468C83.124 92.732 85.56 88.516 85.56 85.048V49.448L83.484 48.428Z" fill="#E4B1F0"/>
<path opacity="0.15" d="M83.484 48.428L57.42 63.424V93.128C56.7793 93.2369 56.1638 93.4619 55.604 93.792C52.6 95.524 50.164 99.744 50.164 103.216C50.164 105.076 50.872 106.336 51.984 106.844L53.9 107.768C54.876 108.296 56.208 108.204 57.68 107.368C60.684 105.632 63.12 101.412 63.12 97.944V70.744L79.868 61.104V80.256C79.2259 80.3642 78.609 80.5893 78.048 80.92C75.044 82.656 72.608 86.872 72.608 90.344C72.608 92.204 73.312 93.46 74.424 93.968L76.288 94.868C77.272 95.428 78.624 95.344 80.12 94.468C83.124 92.732 85.56 88.516 85.56 85.048V49.448L83.484 48.428Z" fill="black"/>
<path d="M62.676 100.636L59.476 94.1239L57.42 93.1279C56.7793 93.2368 56.1638 93.4618 55.604 93.7919C54.2932 94.5984 53.1739 95.6809 52.324 96.9639L61.924 102.508C62.2226 101.904 62.474 101.278 62.676 100.636Z" fill="#E4B1F0"/>
<path opacity="0.4" d="M62.676 100.636L59.476 94.1239L57.42 93.1279C56.7793 93.2368 56.1638 93.4618 55.604 93.7919C54.2932 94.5984 53.1739 95.6809 52.324 96.9639L61.924 102.508C62.2226 101.904 62.474 101.278 62.676 100.636Z" fill="white"/>
<path d="M85.104 87.7359L81.904 81.2199L79.844 80.2239C79.2046 80.3329 78.5905 80.5579 78.032 80.8879C76.7191 81.6931 75.5982 82.7757 74.748 84.0599L84.348 89.6039C84.6496 89.0025 84.9025 88.3778 85.104 87.7359Z" fill="#E4B1F0"/>
<path opacity="0.4" d="M85.104 87.7359L81.904 81.2199L79.844 80.2239C79.2046 80.3329 78.5905 80.5579 78.032 80.8879C76.7191 81.6931 75.5982 82.7757 74.748 84.0599L84.348 89.6039C84.6496 89.0025 84.9025 88.3778 85.104 87.7359Z" fill="white"/>
<path opacity="0.6" d="M85.54 49.424L83.484 48.428L57.42 63.424L59.476 64.42L85.54 49.424Z" fill="white"/>
<path d="M59.476 64.4199V94.1239C58.8353 94.2328 58.2198 94.4579 57.66 94.7879C54.656 96.5199 52.22 100.74 52.22 104.212C52.22 107.684 54.66 109.084 57.664 107.352C60.668 105.62 63.104 101.396 63.104 97.9279V70.7279L81.904 59.9079V81.2319C81.262 81.3408 80.6452 81.5658 80.084 81.8959C77.08 83.6319 74.644 87.8479 74.644 91.3199C74.644 94.7919 77.084 96.1959 80.088 94.4599C83.092 92.7239 85.528 88.5079 85.528 85.0399V49.4399L59.476 64.4199Z" fill="#E4B1F0"/>
<path d="M165.96 98.6361C167.188 101.68 163.468 105.036 157.96 106.4C152.452 107.764 144.092 106.544 138.604 103.38C133.116 100.216 137.644 93.8921 142.904 91.6921C148.164 89.4921 162.248 92.1241 165.96 98.6361Z" fill="#E4B1F0"/>
<path opacity="0.15" d="M165.96 98.6361C167.188 101.68 163.468 105.036 157.96 106.4C152.452 107.764 144.092 106.544 138.604 103.38C133.116 100.216 137.644 93.8921 142.904 91.6921C148.164 89.4921 162.248 92.1241 165.96 98.6361Z" fill="black"/>
<path d="M157.836 101.688C159.404 87.404 157.316 84.956 152.492 76.54L134.832 78.14L143.212 91.34C143.212 91.34 144.548 109.532 145.284 116.772C145.704 120.944 147.24 125.708 149.148 133.552C150.268 138.16 152.348 145.248 153.148 149.128C153.38 150.304 156.372 151.632 158.484 148.188C158.648 143.596 158.524 133.664 158.484 130.188C158.4 121.976 155.72 116.588 155.72 116.588C155.72 116.588 156.956 109.7 157.836 101.688Z" fill="#FFA8A7"/>
<path d="M136.92 133.904C136.88 126.684 136.592 125 136.296 122.9C135.953 120.222 135.219 117.609 134.116 115.144L145.68 92.3082L134.832 78.5562C134.656 79.3922 121.972 111.504 123.588 117.468C124.34 120.24 128.604 133.708 132.024 144.132C132.331 144.747 132.606 145.377 132.848 146.02C133.064 146.64 137.316 143.952 137.316 143.952C137.84 142.632 137.172 141.672 137.152 141.192C137.068 138.912 136.94 137.52 136.92 133.904Z" fill="#FFA8A7"/>
<path d="M134.16 80.4C132.56 84.688 128.488 95.532 125.848 104.548C130.248 106.596 134.16 107.348 138.324 106.82L143.592 96.42C143.784 98.928 144.028 102.096 144.284 105.284C144.684 105.136 145.084 104.976 145.484 104.808C150.336 102.808 154.584 100.732 158.008 99.904C159.072 88.628 157.54 85.3 153.968 79.104L134.16 80.4Z" fill="#F28F8F"/>
<path d="M133.54 80.1001C130.844 84.6241 118.34 89.6041 118.34 89.6041C118.34 89.6041 117.908 95.6361 123.676 98.4041C129.444 101.172 133.54 80.1001 133.54 80.1001Z" fill="#E4B1F0"/>
<path opacity="0.15" d="M133.54 80.1001C130.844 84.6241 118.34 89.6041 118.34 89.6041C118.34 89.6041 117.908 95.6361 123.676 98.4041C129.444 101.172 133.54 80.1001 133.54 80.1001Z" fill="black"/>
<path d="M134.832 78.1561C131.064 84.1881 125.912 86.6561 119.496 96.4961C121.72 100.8 130 105.088 137.312 104.824C145.488 104.528 154.192 97.6801 158.976 96.7601C163.852 95.8201 165.96 98.6361 165.96 98.6361C165.96 98.6361 162.36 90.1721 153.112 77.3281L134.832 78.1561Z" fill="#E4B1F0"/>
<path d="M160.42 151.804C160.952 152.9 161.348 156.14 161.348 156.14C161.348 156.14 161.088 157.34 159.46 158.46L157.696 154.22L160.42 151.804Z" fill="#263238"/>
<path d="M159.46 158.46L155.24 158.024L153.532 154.732L158.444 156.012L159.46 158.46Z" fill="black"/>
<path d="M153.148 149.156L152.948 148.332C152.472 148.708 152.228 153.272 151.28 156.572C150.4 159.6 147.86 161.712 147.2 163.088C146.292 164.932 149.164 166.428 152.884 164.744C154.728 163.908 157.392 162.032 157.904 160.556C158.416 159.08 158.16 156.616 158.604 155.516C159.048 154.416 160.348 152.972 160.44 151.804C160.481 150.759 160.252 149.72 159.776 148.788C159.252 147.86 159.056 146.84 158.544 146.86L158.52 147.712C158.376 148.3 157.596 149.072 155.648 149.608C154.704 149.86 153.764 149.916 153.148 149.156Z" fill="#37474F"/>
<path d="M139.788 145.6C140.48 146.604 141.36 149.752 141.36 149.752C141.36 149.752 141.28 150.98 139.836 152.332L137.456 148.4L139.788 145.6Z" fill="#263238"/>
<path d="M139.836 152.348L135.592 152.548L133.408 149.552L138.46 150.076L139.836 152.348Z" fill="black"/>
<path d="M132.024 144.132L131.768 143.36C131.148 143.512 131.368 144.712 131.396 145.08C131.452 146.14 131.536 147.196 131.572 148.256C131.62 149.428 131.564 150.602 131.404 151.764C131.24 152.876 131.212 154.032 130.748 155.072C130.284 156.112 129.264 156.868 128.48 157.656C128.267 157.839 128.105 158.075 128.012 158.34C127.892 158.836 128.28 159.312 128.704 159.596C129.45 160.069 130.321 160.305 131.204 160.276C132.081 160.242 132.949 160.081 133.78 159.796C135.269 159.349 136.625 158.54 137.724 157.44C138.772 156.348 138.72 154.588 138.656 153.164C138.604 152.008 138.256 150.708 138.528 149.564C138.8 148.42 139.872 146.764 139.788 145.616C139.661 144.635 139.275 143.706 138.668 142.924C138.012 142.084 137.44 140.964 137.152 141.192L137.208 141.916C137.152 142.524 137.42 143.456 135.572 144.28C134.696 144.668 132.744 144.8 132.024 144.132Z" fill="#37474F"/>
<path d="M144.076 61.4721C143.661 62.3856 143.294 63.3202 142.976 64.2721C142.733 65.1715 142.162 65.9476 141.376 66.4481C140.757 66.9232 140.086 67.3258 139.376 67.6481C138.569 67.8454 137.735 67.9076 136.908 67.8321C135.28 67.7861 133.678 67.4091 132.2 66.7241C130.733 66.058 129.442 65.0597 128.428 63.8081C127.3 62.3801 126.504 60.4881 126.676 58.6441C126.84 56.9201 127.568 55.2921 128.676 54.3281C127.872 54.8278 127.192 55.5038 126.688 56.3048C126.183 57.1059 125.867 58.0111 125.764 58.9521C125.092 56.1521 125.944 54.1281 127.388 52.2601C128.832 50.3921 130.436 49.8201 132.288 48.3521C133.516 47.3761 134.288 46.5881 134.688 45.1521C135.088 43.7161 134.996 42.2001 134.996 40.7761C135.002 39.1484 135.4 37.5461 136.155 36.1043C136.91 34.6625 138.001 33.4236 139.336 32.4921C140.699 31.5597 142.271 30.9784 143.912 30.8001C146.269 30.5683 148.643 30.5683 151 30.8001C152.912 31.0321 154.936 31.6241 156.44 32.8241C157.066 33.3187 157.571 33.9492 157.918 34.6678C158.264 35.3864 158.443 36.1743 158.44 36.9721C158.348 39.3161 157.292 41.2801 155.584 42.8921C156.637 43.5851 157.479 44.5535 158.02 45.6921C158.584 46.9721 158.868 48.0401 158.548 49.4561C158.323 50.5518 157.764 51.551 156.948 52.3161C157.072 50.9841 156.948 50.3681 156.432 49.5881C156.555 50.333 156.548 51.0935 156.412 51.8361C156.257 52.6438 155.981 53.4234 155.592 54.1481C155.019 55.2738 154.149 56.2213 153.076 56.8881C151.9 57.5601 150.496 57.6601 149.152 57.8281C147.808 57.9961 146.392 58.2841 145.412 59.2201C144.813 59.868 144.357 60.6355 144.076 61.4721Z" fill="#263238"/>
<path d="M136.776 35.7721C136.676 35.9218 136.547 36.0503 136.397 36.1502C136.247 36.2502 136.079 36.3196 135.902 36.3545C135.725 36.3894 135.543 36.3891 135.366 36.3537C135.19 36.3183 135.022 36.2485 134.872 36.1481C134.722 36.0478 134.594 35.919 134.494 35.769C134.394 35.619 134.325 35.4508 134.29 35.274C134.255 35.0972 134.255 34.9153 134.29 34.7386C134.326 34.5619 134.396 34.3938 134.496 34.2441L136.776 35.7721Z" fill="#263238"/>
<path d="M136.984 35.8359C136.621 35.8603 136.263 35.7394 135.988 35.4997C135.714 35.2601 135.546 34.9213 135.522 34.5579C135.498 34.1946 135.619 33.8364 135.858 33.5623C136.098 33.2881 136.437 33.1203 136.8 33.0959L136.984 35.8359Z" fill="#263238"/>
<path d="M140.06 52.612C138.672 52.368 137.32 52.212 135.52 53.192C133.72 54.172 131.46 57.128 129.496 59.944C127.532 62.76 125.496 65.144 125.496 65.144C125.496 65.144 118.604 59.516 117.52 57.544C116.952 56.516 117.44 56.008 116.9 53.976C116.288 51.668 117.576 50.34 116.196 50.496C114.664 50.672 114.848 53.296 114.848 53.296C114.26 52.2664 113.789 51.1743 113.444 50.04C112.644 47.516 110.356 47.796 109.392 50.2C108.408 52.668 109.392 55.236 112.148 59.26C115.016 63.44 120.948 69.576 123.016 71.46C126.124 74.26 127.668 72.732 130.184 70.132C133.812 66.38 139.244 60.288 139.244 60.288L137.408 56.8L140.06 52.612Z" fill="#FFA8A7"/>
<path d="M152.452 72.256C152.828 70.764 153.048 69.176 153.916 65.856C151.516 62.156 150.468 57.512 152.26 53.648L148.184 53.396C146.276 53.276 143.188 52.964 141.628 52.876L140.06 52.616C137.896 54.928 134.8 56.68 133.008 59.6C131.312 62.352 131.596 65.476 133.808 68.204C133.884 69.624 134.828 74.54 134.836 75.632V76.032C134.836 76.032 136.836 78.464 142.592 78.528C147.656 78.588 152.104 75.792 152.104 75.792C152.006 74.602 152.123 73.404 152.452 72.256Z" fill="#E4B1F0"/>
<path opacity="0.1" d="M139.868 68.4001C139.868 68.4001 141.288 70.4001 144.644 70.1481C148 69.8961 149.42 66.8601 149.42 66.8601C149.42 66.8601 148.98 70.5841 145.216 71.0161C140.7 71.5441 139.868 68.4001 139.868 68.4001Z" fill="black"/>
<path d="M151.6 34.856C152.708 35.788 154.132 37.86 154.288 44.056C154.416 49.324 152.84 50.7 152.036 51.116C151.232 51.532 149.792 51.376 148.236 51.18V53.2C148.236 53.2 148.236 54.252 146.704 55.38C145.532 56.244 143.032 57.088 141.652 56.112C140.424 55.244 141.652 52.828 141.652 52.828V47.628C141.652 47.628 140.32 48.588 138.712 47.26C137.388 46.164 136.868 44.232 137.808 43.14C138.051 42.8801 138.353 42.6838 138.689 42.5682C139.025 42.4526 139.385 42.4213 139.736 42.477C140.087 42.5327 140.419 42.6737 140.703 42.8876C140.987 43.1015 141.214 43.3818 141.364 43.704C143.44 43.5727 145.448 42.9162 147.2 41.796C148.404 41.0395 149.423 40.0239 150.184 38.8233C150.946 37.6227 151.429 36.2673 151.6 34.856Z" fill="#FFA8A7"/>
<path d="M148.224 51.2C146.588 51.056 143.024 50.216 142.452 48.864C142.691 49.5436 143.129 50.1358 143.708 50.564C144.748 51.408 148.224 52.264 148.224 52.264V51.2Z" fill="#F28F8F"/>
<path d="M148.172 43.0959C148.136 43.3388 148.018 43.5623 147.839 43.73C147.66 43.8977 147.429 43.9998 147.184 44.0198C146.939 44.0397 146.695 43.9763 146.491 43.8398C146.287 43.7033 146.135 43.5017 146.06 43.2679C146.369 43.5046 146.756 43.6173 147.144 43.5839C147.535 43.5527 147.901 43.3791 148.172 43.0959Z" fill="#263238"/>
<path d="M153.652 42.624C153.601 42.8647 153.47 43.0809 153.28 43.2373C153.09 43.3937 152.852 43.4811 152.606 43.4853C152.36 43.4895 152.12 43.4102 151.925 43.2603C151.73 43.1104 151.591 42.8988 151.532 42.66C151.829 42.9138 152.208 43.0502 152.599 43.0436C152.989 43.037 153.364 42.8877 153.652 42.624Z" fill="#263238"/>
<path d="M147.116 40.5841L145.668 41.3441C145.57 41.146 145.552 40.9174 145.618 40.7064C145.684 40.4953 145.83 40.3182 146.024 40.2121C146.12 40.1626 146.224 40.133 146.332 40.125C146.439 40.117 146.547 40.1308 146.649 40.1655C146.751 40.2003 146.845 40.2553 146.925 40.3272C147.006 40.3991 147.07 40.4865 147.116 40.5841Z" fill="#263238"/>
<path d="M148.4 47.5601L149.96 48.0321C149.934 48.1368 149.887 48.2351 149.821 48.3211C149.756 48.407 149.674 48.4789 149.58 48.5324C149.486 48.5858 149.383 48.6197 149.275 48.632C149.168 48.6444 149.059 48.6348 148.956 48.6041C148.746 48.5359 148.571 48.389 148.467 48.1943C148.364 47.9995 148.339 47.7722 148.4 47.5601Z" fill="#F28F8F"/>
<path d="M153.568 40.8521L152.2 39.9361C152.256 39.8452 152.33 39.7664 152.417 39.7044C152.504 39.6425 152.603 39.5987 152.708 39.5756C152.812 39.5524 152.92 39.5505 153.025 39.5698C153.13 39.5892 153.231 39.6294 153.32 39.6881C153.503 39.8134 153.63 40.004 153.676 40.2206C153.723 40.4372 153.684 40.6633 153.568 40.8521Z" fill="#263238"/>
<path d="M149.568 42.1001L150.052 46.1001L152.1 45.2481L149.568 42.1001Z" fill="#F28F8F"/>
<path d="M175.664 46.4002C175.36 41.5282 174.556 38.9002 172.256 37.5642C171.216 36.9562 170.228 36.8922 169.568 37.2482C168.808 37.6482 168.476 38.6042 168.968 39.9282C169.394 41.0355 169.696 42.1865 169.868 43.3602C169.868 43.3602 168.4 41.2002 167.088 42.0002C165.888 42.7242 167.736 42.9762 168.688 45.1722C169.512 47.1082 170.372 47.1722 170.396 48.3722C170.396 48.7122 170.272 49.7842 170.08 51.1362C169.776 53.2522 169.332 56.0602 169.044 57.8202C168.884 58.8282 168.772 59.4922 168.772 59.4922C168.772 59.4922 167.664 59.1522 166.312 58.6922C164.592 58.0922 162.62 57.1482 160.888 56.3402C157.5 54.7682 155.212 53.5402 152.272 53.6562C152.272 53.6562 150.092 55.1522 150.728 59.6882C151.4 64.4522 153.928 65.8682 153.928 65.8682C154.268 64.6082 154.416 63.7602 154.692 62.5122C157.748 64.0002 165.092 65.8402 168.396 66.9402C171.824 68.0842 173.444 67.8122 174.284 64.7642C174.604 63.6042 175.064 59.9642 175.376 56.0722C175.673 52.8573 175.769 49.627 175.664 46.4002Z" fill="#FFA8A7"/>
<path d="M134.7 74.4242C134.7 74.4242 142.464 79.1402 152.1 74.1602L153.112 77.3282C149.976 80.4362 140.444 82.0922 134.832 78.1562L134.7 74.4242Z" fill="#455A64"/>
<path d="M142.14 31.6521C139.96 32.9041 137.844 35.6961 137.976 41.4481C137.49 41.756 137.102 42.1952 136.855 42.7148C136.609 43.2344 136.515 43.8132 136.584 44.3841C136.728 46.1801 138.12 47.6361 139.696 47.6321C141.272 47.6281 142.432 46.1681 142.292 44.3721C142.251 43.7452 142.047 43.1398 141.702 42.6153C141.356 42.0907 140.88 41.6651 140.32 41.3801C140.32 41.3361 139.764 39.4121 141.332 35.9321C143.256 31.6521 149.256 30.7321 151.828 30.9361C151.828 30.2681 146.564 29.1161 142.14 31.6521Z" fill="#E4B1F0"/>
<path opacity="0.45" d="M142.14 31.6521C139.96 32.9041 137.844 35.6961 137.976 41.4481C137.49 41.756 137.102 42.1952 136.855 42.7148C136.609 43.2344 136.515 43.8132 136.584 44.3841C136.728 46.1801 138.12 47.6361 139.696 47.6321C141.272 47.6281 142.432 46.1681 142.292 44.3721C142.251 43.7452 142.047 43.1398 141.702 42.6153C141.356 42.0907 140.88 41.6651 140.32 41.3801C140.32 41.3361 139.764 39.4121 141.332 35.9321C143.256 31.6521 149.256 30.7321 151.828 30.9361C151.828 30.2681 146.564 29.1161 142.14 31.6521Z" fill="black"/>
<path d="M142.336 44.372C142.192 42.544 140.776 41.068 139.176 41.072C138.933 41.0728 138.692 41.1092 138.46 41.18C138.268 41.24 137.66 41.492 137.556 41.536C136.44 41.98 135.712 43.216 135.828 44.672C135.972 46.496 137.384 47.976 138.984 47.972C139.278 47.9707 139.569 47.9165 139.844 47.812C139.984 47.76 140.54 47.536 140.676 47.476C141.752 47.012 142.448 45.796 142.336 44.372Z" fill="#E4B1F0"/>
<path opacity="0.3" d="M142.336 44.372C142.192 42.544 140.776 41.068 139.176 41.072C138.933 41.0728 138.692 41.1092 138.46 41.18C138.268 41.24 137.66 41.492 137.556 41.536C136.44 41.98 135.712 43.216 135.828 44.672C135.972 46.496 137.384 47.976 138.984 47.972C139.278 47.9707 139.569 47.9165 139.844 47.812C139.984 47.76 140.54 47.536 140.676 47.476C141.752 47.012 142.448 45.796 142.336 44.372Z" fill="black"/>
<path d="M141.62 44.6601C141.476 42.8321 140.064 41.3561 138.464 41.3601C136.864 41.3641 135.664 42.8481 135.828 44.6721C135.992 46.4961 137.384 47.9761 138.984 47.9721C140.584 47.9681 141.764 46.4841 141.62 44.6601Z" fill="#E4B1F0"/>
<path opacity="0.1" d="M141.62 44.6601C141.476 42.8321 140.064 41.3561 138.464 41.3601C136.864 41.3641 135.664 42.8481 135.828 44.6721C135.992 46.4961 137.384 47.9761 138.984 47.9721C140.584 47.9681 141.764 46.4841 141.62 44.6601Z" fill="black"/>
<path d="M140.092 44.6642C140.082 44.2655 139.923 43.885 139.647 43.5972C139.371 43.3093 138.998 43.1349 138.6 43.1082C137.844 43.1082 137.288 43.8082 137.356 44.6682C137.366 45.0668 137.525 45.4473 137.801 45.7351C138.077 46.023 138.45 46.1974 138.848 46.2242C139.6 46.2242 140.16 45.5242 140.092 44.6642Z" fill="#455A64"/>
<path d="M117.556 35.296L120.044 40.988C119.859 40.9976 119.677 41.041 119.508 41.116C119.214 41.2459 118.966 41.4598 118.794 41.7309C118.622 42.0019 118.534 42.3178 118.542 42.6388C118.549 42.9597 118.651 43.2712 118.836 43.534C119.02 43.7967 119.278 43.999 119.578 44.1151C119.877 44.2312 120.204 44.2561 120.517 44.1865C120.831 44.1169 121.116 43.956 121.338 43.7241C121.56 43.4922 121.709 43.1997 121.764 42.8836C121.82 42.5675 121.781 42.2419 121.652 41.948L119.424 36.844L123.968 33.244L126.188 38.296C126.002 38.3057 125.819 38.349 125.648 38.424C125.354 38.5535 125.106 38.7672 124.934 39.038C124.761 39.3087 124.673 39.6245 124.68 39.9453C124.687 40.2661 124.789 40.5777 124.973 40.8407C125.157 41.1036 125.415 41.3062 125.714 41.4228C126.013 41.5394 126.34 41.5648 126.653 41.4957C126.966 41.4267 127.252 41.2664 127.475 41.035C127.697 40.8036 127.846 40.5115 127.902 40.1956C127.959 39.8797 127.92 39.5541 127.792 39.26L124.088 30.824L117.556 35.296Z" fill="#E4B1F0"/>
<path d="M164.692 73.644C165.001 73.5658 165.322 73.5522 165.636 73.604C166.052 73.6835 166.456 73.818 166.836 74.004C167.348 74.2604 167.884 74.4667 168.436 74.62C168.71 74.6955 168.997 74.7146 169.279 74.6761C169.561 74.6376 169.832 74.5423 170.076 74.396C169.745 74.3607 169.427 74.2513 169.144 74.076C168.468 73.652 168.032 72.772 167.456 72.22C166.6 71.396 165.616 71.248 164.36 71.312C164.156 72.332 163.924 73.348 163.708 74.368C163.537 75.168 163.367 75.968 163.196 76.768C163.196 76.844 162.936 77.848 162.936 77.848C162.685 77.6552 162.396 77.5188 162.088 77.448C161.748 77.3756 161.395 77.4056 161.072 77.5342C160.749 77.6628 160.472 77.8843 160.275 78.1707C160.078 78.457 159.971 78.7953 159.966 79.1427C159.962 79.4901 160.06 79.8311 160.25 80.1224C160.439 80.4137 160.71 80.6423 161.03 80.7793C161.349 80.9162 161.702 80.9554 162.043 80.8917C162.385 80.8281 162.7 80.6645 162.949 80.4218C163.197 80.179 163.368 79.868 163.44 79.528L164.692 73.644Z" fill="#E4B1F0"/>
</svg>
