<svg width="145" height="57" viewBox="0 0 145 57" fill="none" xmlns="http://www.w3.org/2000/svg">
<rect x="0.834167" y="13.1584" width="16.4745" height="38.6968" rx="8.23725" transform="rotate(-27.6124 0.834167 13.1584)" fill="white"/>
<path fill-rule="evenodd" clip-rule="evenodd" d="M40.561 16.8126C40.119 16.601 39.6183 16.5459 39.14 16.6561C38.6618 16.7664 38.234 17.0355 37.9262 17.42C37.856 17.5069 37.7497 17.6832 37.5782 18.109C37.4078 18.5316 37.2152 19.0944 36.9353 19.9123C36.6872 20.6374 36.6242 20.8377 36.5993 21.0123C36.5237 21.5449 36.6456 22.086 36.9418 22.5313C37.0384 22.679 37.1811 22.8314 37.7152 23.3767L41.3027 27.04C41.9055 27.6532 42.3208 28.0783 42.6536 28.3845C42.9892 28.6935 43.162 28.8063 43.2623 28.8517C43.7041 29.0633 44.2045 29.1186 44.6827 29.0087C45.1608 28.8987 45.5885 28.63 45.8966 28.246C45.9668 28.159 46.0731 27.9827 46.2446 27.5569C46.4149 27.1343 46.6075 26.5715 46.8874 25.7537C47.1361 25.0269 47.1986 24.8282 47.224 24.652C47.2997 24.1199 47.1777 23.5791 46.8815 23.1329C46.7844 22.9869 46.6416 22.8345 46.1075 22.2892L42.52 18.6259C42.08 18.1675 41.6296 17.7192 41.1691 17.2814C40.8336 16.9724 40.6607 16.8596 40.561 16.8126ZM35.3105 24.6602C35.4879 24.8491 35.6682 25.0353 35.8511 25.2188L39.4648 28.9077C40.0338 29.4908 40.4987 29.9643 40.8899 30.3201C41.2827 30.682 41.682 31.0035 42.1318 31.2204C43.1043 31.6863 44.2061 31.8079 45.2586 31.5655C46.3111 31.3231 47.2524 30.731 47.93 29.885C48.2442 29.4932 48.4662 29.0273 48.6665 28.5281C48.8644 28.0355 49.0803 27.4048 49.3449 26.6317L49.3919 26.4943C49.5891 25.9181 49.7432 25.4679 49.8087 25.0131C49.9754 23.8435 49.7082 22.6547 49.0578 21.6733C48.8029 21.2901 48.4715 20.953 48.0474 20.5212L47.9727 20.4438L44.3586 16.7566C43.8961 16.2728 43.4211 15.8013 42.934 15.3425C42.5412 14.9806 42.1419 14.6591 41.6915 14.4439C40.719 13.978 39.6172 13.8564 38.5647 14.0987C37.5122 14.3411 36.5709 14.9333 35.8933 15.7793C35.5791 16.171 35.3571 16.6369 35.1574 17.1345C34.9807 17.586 34.8149 18.0417 34.6603 18.5012L29.8243 32.6324C28.9365 30.9463 27.4962 29.6211 25.7461 28.8803C23.9959 28.1395 22.043 28.0283 20.2162 28.5655C18.3895 29.1026 16.8006 30.2552 15.7173 31.8292C14.6341 33.4031 14.1226 35.3021 14.2691 37.2062C14.4157 39.1103 15.2112 40.9031 16.5218 42.2826C17.8323 43.6621 19.5777 44.5439 21.464 44.7794C23.3502 45.015 25.2619 44.5899 26.8769 43.5757C28.492 42.5616 29.7117 41.0204 30.3306 39.2119L35.3105 24.6602ZM27.8618 38.367C28.3501 36.9401 28.2549 35.3787 27.5971 34.0264C26.9392 32.6741 25.7726 31.6416 24.354 31.1561C22.9353 30.6706 21.3807 30.7719 20.0323 31.4376C18.6838 32.1033 17.652 33.2789 17.1636 34.7059C16.6753 36.1328 16.7705 37.6942 17.4284 39.0465C18.0862 40.3988 19.2528 41.4313 20.6715 41.9168C22.0901 42.4023 23.6447 42.301 24.9931 41.6353C26.3416 40.9696 27.3735 39.794 27.8618 38.367Z" fill="white"/>
<ellipse cx="22.4545" cy="36.6059" rx="5.72274" ry="5.72274" transform="rotate(-9.24806 22.4545 36.6059)" fill="#362D63"/>
<path d="M78.454 21.4248L73.474 35.4648H69.194L64.214 21.4248H67.854L71.334 32.0248L74.834 21.4248H78.454ZM90.4034 29.7048C90.4034 30.0248 90.3834 30.3582 90.3434 30.7048H82.6034C82.6567 31.3982 82.8767 31.9315 83.2634 32.3048C83.6634 32.6648 84.15 32.8448 84.7234 32.8448C85.5767 32.8448 86.17 32.4848 86.5034 31.7648H90.1434C89.9567 32.4982 89.6167 33.1582 89.1234 33.7448C88.6434 34.3315 88.0367 34.7915 87.3034 35.1248C86.57 35.4582 85.75 35.6248 84.8434 35.6248C83.75 35.6248 82.7767 35.3915 81.9234 34.9248C81.07 34.4582 80.4034 33.7915 79.9234 32.9248C79.4434 32.0582 79.2034 31.0448 79.2034 29.8848C79.2034 28.7248 79.4367 27.7115 79.9034 26.8448C80.3834 25.9782 81.05 25.3115 81.9034 24.8448C82.7567 24.3782 83.7367 24.1448 84.8434 24.1448C85.9234 24.1448 86.8834 24.3715 87.7234 24.8248C88.5634 25.2782 89.2167 25.9248 89.6834 26.7648C90.1634 27.6048 90.4034 28.5848 90.4034 29.7048ZM86.9034 28.8048C86.9034 28.2182 86.7034 27.7515 86.3034 27.4048C85.9034 27.0582 85.4034 26.8848 84.8034 26.8848C84.23 26.8848 83.7434 27.0515 83.3434 27.3848C82.9567 27.7182 82.7167 28.1915 82.6234 28.8048H86.9034ZM98.8076 35.4648L96.6676 32.3648L94.8676 35.4648H91.1676L94.8476 29.7648L91.0676 24.3048H94.9076L97.0476 27.3848L98.8476 24.3048H102.548L98.8076 29.9248L102.648 35.4648H98.8076ZM109.045 35.6248C107.952 35.6248 106.965 35.3915 106.085 34.9248C105.219 34.4582 104.532 33.7915 104.025 32.9248C103.532 32.0582 103.285 31.0448 103.285 29.8848C103.285 28.7382 103.539 27.7315 104.045 26.8648C104.552 25.9848 105.245 25.3115 106.125 24.8448C107.005 24.3782 107.992 24.1448 109.085 24.1448C110.179 24.1448 111.165 24.3782 112.045 24.8448C112.925 25.3115 113.619 25.9848 114.125 26.8648C114.632 27.7315 114.885 28.7382 114.885 29.8848C114.885 31.0315 114.625 32.0448 114.105 32.9248C113.599 33.7915 112.899 34.4582 112.005 34.9248C111.125 35.3915 110.139 35.6248 109.045 35.6248ZM109.045 32.6648C109.699 32.6648 110.252 32.4248 110.705 31.9448C111.172 31.4648 111.405 30.7782 111.405 29.8848C111.405 28.9915 111.179 28.3048 110.725 27.8248C110.285 27.3448 109.739 27.1048 109.085 27.1048C108.419 27.1048 107.865 27.3448 107.425 27.8248C106.985 28.2915 106.765 28.9782 106.765 29.8848C106.765 30.7782 106.979 31.4648 107.405 31.9448C107.845 32.4248 108.392 32.6648 109.045 32.6648ZM120.12 26.1648C120.52 25.5515 121.02 25.0715 121.62 24.7248C122.22 24.3648 122.886 24.1848 123.62 24.1848V27.8048H122.68C121.826 27.8048 121.186 27.9915 120.76 28.3648C120.333 28.7248 120.12 29.3648 120.12 30.2848V35.4648H116.7V24.3048H120.12V26.1648ZM124.574 29.8648C124.574 28.7182 124.788 27.7115 125.214 26.8448C125.654 25.9782 126.248 25.3115 126.994 24.8448C127.741 24.3782 128.574 24.1448 129.494 24.1448C130.281 24.1448 130.968 24.3048 131.554 24.6248C132.154 24.9448 132.614 25.3648 132.934 25.8848V24.3048H136.354V35.4648H132.934V33.8848C132.601 34.4048 132.134 34.8248 131.534 35.1448C130.948 35.4648 130.261 35.6248 129.474 35.6248C128.568 35.6248 127.741 35.3915 126.994 34.9248C126.248 34.4448 125.654 33.7715 125.214 32.9048C124.788 32.0248 124.574 31.0115 124.574 29.8648ZM132.934 29.8848C132.934 29.0315 132.694 28.3582 132.214 27.8648C131.748 27.3715 131.174 27.1248 130.494 27.1248C129.814 27.1248 129.234 27.3715 128.754 27.8648C128.288 28.3448 128.054 29.0115 128.054 29.8648C128.054 30.7182 128.288 31.3982 128.754 31.9048C129.234 32.3982 129.814 32.6448 130.494 32.6448C131.174 32.6448 131.748 32.3982 132.214 31.9048C132.694 31.4115 132.934 30.7382 132.934 29.8848Z" fill="white"/>
</svg>
