<svg width="39" height="37" viewBox="0 0 39 37" fill="none" xmlns="http://www.w3.org/2000/svg">
<path d="M15.4375 23.8881V12.9105C15.4377 12.7731 15.4772 12.6384 15.5517 12.5203C15.6262 12.4023 15.733 12.3053 15.8609 12.2395C15.9889 12.1737 16.1332 12.1416 16.2789 12.1465C16.4245 12.1514 16.5661 12.1931 16.6888 12.2672L25.7497 17.7545C25.8645 17.8238 25.9589 17.9192 26.0243 18.0318C26.0897 18.1445 26.1239 18.2708 26.1239 18.3993C26.1239 18.5277 26.0897 18.654 26.0243 18.7667C25.9589 18.8794 25.8645 18.9747 25.7497 19.044L16.6888 24.5328C16.5661 24.607 16.4245 24.6487 16.2789 24.6536C16.1332 24.6585 15.9889 24.6263 15.8609 24.5606C15.733 24.4948 15.6262 24.3978 15.5517 24.2798C15.4772 24.1617 15.4377 24.027 15.4375 23.8896V23.8881Z" fill="white"/>
<path d="M1.625 18.3993C1.625 9.09555 9.62813 1.55304 19.5 1.55304C29.3719 1.55304 37.375 9.09555 37.375 18.3993C37.375 27.703 29.3719 35.2455 19.5 35.2455C9.62813 35.2455 1.625 27.703 1.625 18.3993ZM19.5 3.85025C15.4057 3.85025 11.4791 5.38309 8.58404 8.11156C5.68895 10.84 4.0625 14.5406 4.0625 18.3993C4.0625 22.2579 5.68895 25.9585 8.58404 28.687C11.4791 31.4154 15.4057 32.9483 19.5 32.9483C23.5943 32.9483 27.5209 31.4154 30.416 28.687C33.3111 25.9585 34.9375 22.2579 34.9375 18.3993C34.9375 14.5406 33.3111 10.84 30.416 8.11156C27.5209 5.38309 23.5943 3.85025 19.5 3.85025Z" fill="white"/>
</svg>
