<svg width="39" height="39" viewBox="0 0 39 39" fill="none" xmlns="http://www.w3.org/2000/svg">
<path d="M15.4375 25.324V13.676C15.4377 13.5302 15.4772 13.3873 15.5517 13.262C15.6262 13.1367 15.733 13.0338 15.8609 12.964C15.9889 12.8943 16.1332 12.8602 16.2789 12.8654C16.4245 12.8705 16.5661 12.9148 16.6888 12.9935L25.7497 18.8159C25.8645 18.8894 25.9589 18.9906 26.0243 19.1101C26.0897 19.2297 26.1239 19.3637 26.1239 19.5C26.1239 19.6362 26.0897 19.7703 26.0243 19.8899C25.9589 20.0094 25.8645 20.1106 25.7497 20.1841L16.6888 26.0081C16.5661 26.0868 16.4245 26.1311 16.2789 26.1362C16.1332 26.1414 15.9889 26.1073 15.8609 26.0375C15.733 25.9678 15.6262 25.8648 15.5517 25.7396C15.4772 25.6143 15.4377 25.4713 15.4375 25.3256V25.324Z" fill="white"/>
<path d="M1.625 19.5C1.625 9.62813 9.62813 1.625 19.5 1.625C29.3719 1.625 37.375 9.62813 37.375 19.5C37.375 29.3719 29.3719 37.375 19.5 37.375C9.62813 37.375 1.625 29.3719 1.625 19.5ZM19.5 4.0625C15.4057 4.0625 11.4791 5.68895 8.58404 8.58404C5.68895 11.4791 4.0625 15.4057 4.0625 19.5C4.0625 23.5943 5.68895 27.5209 8.58404 30.416C11.4791 33.3111 15.4057 34.9375 19.5 34.9375C23.5943 34.9375 27.5209 33.3111 30.416 30.416C33.3111 27.5209 34.9375 23.5943 34.9375 19.5C34.9375 15.4057 33.3111 11.4791 30.416 8.58404C27.5209 5.68895 23.5943 4.0625 19.5 4.0625Z" fill="white"/>
</svg>
