<svg width="22" height="12" viewBox="0 0 22 12" fill="none" xmlns="http://www.w3.org/2000/svg">
<path d="M1 11.4167V9.58342H21V11.4167H1ZM2.15 5.87091L0.85 5.18341L1.7 3.80841H0V2.43341H1.7L0.85 1.10425L2.15 0.416748L3 1.74591L3.85 0.416748L5.15 1.10425L4.3 2.43341H6V3.80841H4.3L5.15 5.18341L3.85 5.87091L3 4.49591L2.15 5.87091ZM10.15 5.87091L8.85 5.18341L9.7 3.80841H8V2.43341H9.7L8.85 1.10425L10.15 0.416748L11 1.74591L11.85 0.416748L13.15 1.10425L12.3 2.43341H14V3.80841H12.3L13.15 5.18341L11.85 5.87091L11 4.49591L10.15 5.87091ZM18.15 5.87091L16.85 5.18341L17.7 3.80841H16V2.43341H17.7L16.85 1.10425L18.15 0.416748L19 1.74591L19.85 0.416748L21.15 1.10425L20.3 2.43341H22V3.80841H20.3L21.15 5.18341L19.85 5.87091L19 4.49591L18.15 5.87091Z" fill="#362D63"/>
</svg>
