<svg width="30" height="30" viewBox="0 0 30 30" fill="none" xmlns="http://www.w3.org/2000/svg">
<path d="M0.916703 14.885V14.8842C0.916703 13.2273 1.18489 11.6701 1.71827 10.2091C2.16939 8.97339 2.77694 7.82942 3.54148 6.77594L10.0386 18.0011H1.28209C1.18319 17.5612 1.10171 17.1139 1.03769 16.6592C0.956195 16.0804 0.915773 15.4891 0.916703 14.885ZM24.2965 4.51232C25.7556 5.83644 26.8571 7.37779 27.6053 9.13975H14.5974L19.0281 1.54424C20.9952 2.12053 22.7498 3.10863 24.2965 4.51232ZM15.9248 0.969647C16.0451 0.980396 16.1619 0.99159 16.2754 1.00323L9.71665 12.256L5.38494 4.66759C6.57806 3.55811 7.94733 2.66781 9.49576 1.99665C11.1536 1.27809 12.9478 0.916656 14.8843 0.916656C15.1791 0.916656 15.5254 0.933936 15.9248 0.969647ZM28.8519 14.8835V14.8842C28.8519 16.5124 28.5675 18.0673 27.9995 19.5523C27.5217 20.8014 26.927 21.9415 26.2165 22.9742L19.73 11.7674H28.4865C28.5854 12.2073 28.6669 12.6546 28.7309 13.1093C28.8124 13.6881 28.8528 14.2794 28.8519 14.8835ZM5.48961 25.255C4.0207 23.931 2.91355 22.3899 2.16378 20.6287H15.1413L10.7742 28.2236C8.80718 27.6471 7.04705 26.6589 5.48961 25.255ZM14.8843 28.8518C14.5449 28.8518 14.1983 28.8292 13.8443 28.7836C13.7351 28.7695 13.6274 28.7554 13.5214 28.7414L20.0524 17.5133L24.3836 25.1009C23.1906 26.2104 21.8217 27.1007 20.2742 27.7719C18.6175 28.4904 16.8227 28.8518 14.8843 28.8518Z" fill="white" stroke="white"/>
</svg>
