<svg width="58" height="57" viewBox="0 0 58 57" fill="none" xmlns="http://www.w3.org/2000/svg">
<rect x="0.834106" y="13.1584" width="16.4745" height="38.6968" rx="8.23725" transform="rotate(-27.6124 0.834106 13.1584)" fill="white"/>
<path fill-rule="evenodd" clip-rule="evenodd" d="M40.561 16.8126C40.119 16.601 39.6183 16.5459 39.14 16.6561C38.6618 16.7664 38.234 17.0355 37.9262 17.42C37.856 17.5069 37.7497 17.6832 37.5782 18.109C37.4078 18.5316 37.2152 19.0944 36.9353 19.9123C36.6872 20.6374 36.6242 20.8377 36.5993 21.0123C36.5237 21.5449 36.6456 22.086 36.9418 22.5313C37.0384 22.679 37.1811 22.8314 37.7152 23.3767L41.3027 27.04C41.9055 27.6532 42.3208 28.0783 42.6536 28.3845C42.9892 28.6935 43.162 28.8063 43.2623 28.8517C43.7041 29.0633 44.2045 29.1186 44.6827 29.0087C45.1608 28.8987 45.5885 28.63 45.8966 28.246C45.9668 28.159 46.0731 27.9827 46.2446 27.5569C46.4149 27.1343 46.6075 26.5715 46.8874 25.7537C47.1361 25.0269 47.1986 24.8282 47.224 24.652C47.2997 24.1199 47.1777 23.5791 46.8815 23.1329C46.7844 22.9869 46.6416 22.8345 46.1075 22.2892L42.52 18.6259C42.08 18.1675 41.6296 17.7192 41.1691 17.2814C40.8336 16.9724 40.6607 16.8596 40.561 16.8126ZM35.3105 24.6602C35.4879 24.8491 35.6682 25.0353 35.8511 25.2188L39.4648 28.9077C40.0338 29.4908 40.4987 29.9643 40.8899 30.3201C41.2827 30.682 41.682 31.0035 42.1318 31.2204C43.1043 31.6863 44.2061 31.8079 45.2586 31.5655C46.3111 31.3231 47.2524 30.731 47.93 29.885C48.2442 29.4932 48.4662 29.0273 48.6665 28.5281C48.8644 28.0355 49.0803 27.4048 49.3449 26.6317L49.3919 26.4943C49.5891 25.9181 49.7432 25.4679 49.8087 25.0131C49.9754 23.8435 49.7082 22.6547 49.0578 21.6733C48.8029 21.2901 48.4715 20.953 48.0474 20.5212L47.9727 20.4438L44.3586 16.7566C43.8961 16.2728 43.4211 15.8013 42.934 15.3425C42.5412 14.9806 42.1419 14.6591 41.6915 14.4439C40.719 13.978 39.6172 13.8564 38.5647 14.0987C37.5122 14.3411 36.5709 14.9333 35.8933 15.7793C35.5791 16.171 35.3571 16.6369 35.1574 17.1345C34.9807 17.586 34.8149 18.0417 34.6603 18.5012L29.8243 32.6324C28.9365 30.9463 27.4962 29.6211 25.7461 28.8803C23.9959 28.1395 22.043 28.0283 20.2162 28.5655C18.3895 29.1026 16.8006 30.2552 15.7173 31.8292C14.6341 33.4031 14.1226 35.3021 14.2691 37.2062C14.4157 39.1103 15.2112 40.9031 16.5218 42.2826C17.8323 43.6621 19.5777 44.5439 21.464 44.7794C23.3502 45.015 25.2619 44.5899 26.8769 43.5757C28.492 42.5616 29.7117 41.0204 30.3306 39.2119L35.3105 24.6602ZM27.8618 38.367C28.3501 36.9401 28.2549 35.3787 27.5971 34.0264C26.9392 32.6741 25.7726 31.6416 24.354 31.1561C22.9353 30.6706 21.3807 30.7719 20.0323 31.4376C18.6838 32.1033 17.652 33.2789 17.1636 34.7059C16.6753 36.1328 16.7705 37.6942 17.4284 39.0465C18.0862 40.3988 19.2528 41.4313 20.6715 41.9168C22.0901 42.4023 23.6447 42.301 24.9931 41.6353C26.3416 40.9696 27.3735 39.794 27.8618 38.367Z" fill="white"/>
<ellipse cx="22.4545" cy="36.6058" rx="5.72274" ry="5.72274" transform="rotate(-9.24806 22.4545 36.6058)" fill="#7E60BF"/>
</svg>
