<svg width="59" height="58" viewBox="0 0 59 58" fill="none" xmlns="http://www.w3.org/2000/svg">
<rect x="1.76501" y="13.1668" width="16.4745" height="38.6968" rx="8.23725" transform="rotate(-27.6124 1.76501 13.1668)" fill="white"/>
<path fill-rule="evenodd" clip-rule="evenodd" d="M41.6296 17.3436C41.1876 17.132 40.6869 17.0769 40.2086 17.1871C39.7304 17.2974 39.3026 17.5665 38.9948 17.951C38.9246 18.0379 38.8183 18.2142 38.6468 18.6401C38.4764 19.0626 38.2838 19.6255 38.0039 20.4433C37.7558 21.1684 37.6928 21.3687 37.6679 21.5433C37.5923 22.0759 37.7142 22.617 38.0104 23.0623C38.107 23.21 38.2497 23.3624 38.7838 23.9077L42.3713 27.571C42.9741 28.1842 43.3894 28.6093 43.7222 28.9155C44.0578 29.2245 44.2306 29.3373 44.3309 29.3827C44.7727 29.5943 45.2731 29.6496 45.7513 29.5397C46.2294 29.4297 46.6571 29.161 46.9652 28.777C47.0354 28.69 47.1417 28.5137 47.3132 28.0879C47.4835 27.6653 47.6761 27.1025 47.956 26.2847C48.2047 25.5579 48.2672 25.3592 48.2926 25.183C48.3683 24.6509 48.2463 24.1101 47.9501 23.664C47.853 23.5179 47.7102 23.3655 47.1761 22.8202L43.5887 19.1569C43.1486 18.6985 42.6982 18.2502 42.2377 17.8124C41.9022 17.5034 41.7293 17.3907 41.6296 17.3436ZM36.3791 25.1912C36.5565 25.3801 36.7368 25.5663 36.9197 25.7498L40.5334 29.4387C41.1024 30.0218 41.5673 30.4953 41.9585 30.8511C42.3513 31.213 42.7506 31.5346 43.2004 31.7514C44.1729 32.2173 45.2747 32.3389 46.3272 32.0965C47.3797 31.8542 48.321 31.262 48.9986 30.416C49.3128 30.0242 49.5348 29.5583 49.7351 29.0591C49.9331 28.5665 50.1489 27.9358 50.4135 27.1627L50.4605 27.0253C50.6577 26.4491 50.8118 25.9989 50.8773 25.5441C51.044 24.3745 50.7768 23.1857 50.1264 22.2043C49.8715 21.8211 49.5401 21.484 49.116 21.0522L49.0414 20.9749L45.4272 17.2876C44.9647 16.8038 44.4897 16.3323 44.0026 15.8735C43.6098 15.5116 43.2105 15.1901 42.7601 14.9749C41.7876 14.509 40.6858 14.3874 39.6333 14.6297C38.5809 14.8721 37.6395 15.4643 36.9619 16.3103C36.6477 16.702 36.4257 17.1679 36.226 17.6655C36.0493 18.117 35.8835 18.5727 35.7289 19.0322L30.8929 33.1634C30.0051 31.4773 28.5648 30.1522 26.8147 29.4114C25.0645 28.6706 23.1116 28.5593 21.2848 29.0965C19.4581 29.6336 17.8692 30.7862 16.7859 32.3602C15.7027 33.9341 15.1912 35.8331 15.3377 37.7372C15.4843 39.6413 16.2798 41.4342 17.5904 42.8136C18.9009 44.1931 20.6463 45.0749 22.5326 45.3105C24.4188 45.546 26.3305 45.1209 27.9455 44.1067C29.5606 43.0926 30.7803 41.5514 31.3992 39.7429L36.3791 25.1912ZM28.9304 38.898C29.4187 37.4711 29.3235 35.9097 28.6657 34.5574C28.0078 33.2051 26.8412 32.1726 25.4226 31.6871C24.0039 31.2016 22.4494 31.3029 21.1009 31.9686C19.7524 32.6343 18.7206 33.8099 18.2322 35.2369C17.7439 36.6638 17.8391 38.2252 18.497 39.5775C19.1548 40.9298 20.3214 41.9623 21.7401 42.4478C23.1587 42.9333 24.7133 42.832 26.0617 42.1663C27.4102 41.5006 28.4421 40.325 28.9304 38.898Z" fill="white"/>
<ellipse cx="23.5231" cy="37.1369" rx="5.72274" ry="5.72274" transform="rotate(-9.24806 23.5231 37.1369)" fill="#362D63"/>
</svg>
